<?xml version="1.0" encoding="UTF-8"?>
<svg version="1.1" xmlns="http://www.w3.org/2000/svg" width="500" height="500">
<path d="M0 0 C6.80219085 3.1555021 11.2737956 8.30431778 16 14 C17.46326497 15.20878411 18.92735203 16.41682834 20.41015625 17.6015625 C22.88675013 19.77999151 24.93079751 22.29912995 27.05859375 24.8125 C29.91865313 28.03510212 33.04536441 30.96817392 36.1796875 33.921875 C38 36 38 36 38.5078125 38.140625 C38.67023438 38.75421875 38.83265625 39.3678125 39 40 C40.85386053 41.08348528 40.85386053 41.08348528 43 42 C44.921875 43.65625 44.921875 43.65625 46.75 45.5 C47.36359375 46.1084375 47.9771875 46.716875 48.609375 47.34375 C50 49 50 49 50 51 C51.32 51.66 52.64 52.32 54 53 C54 53.66 54 54.32 54 55 C55.32 55.66 56.64 56.32 58 57 C58 57.66 58 58.32 58 59 C58.58265625 59.2578125 59.1653125 59.515625 59.765625 59.78125 C62.1802903 61.09834017 63.81740177 62.55088384 65.75 64.5 C66.36359375 65.1084375 66.9771875 65.716875 67.609375 66.34375 C69 68 69 68 69 70 C70.32 70.66 71.64 71.32 73 72 C73 72.66 73 73.32 73 74 C74.32 74.66 75.64 75.32 77 76 C77 76.66 77 77.32 77 78 C77.66 78 78.32 78 79 78 C79.103125 78.639375 79.20625 79.27875 79.3125 79.9375 C79.6528125 80.9584375 79.6528125 80.9584375 80 82 C80.99 82.33 81.98 82.66 83 83 C84.19150188 84.4231828 85.3785862 85.85069043 86.52734375 87.30859375 C88.65238581 89.74929193 91.11466109 91.69649025 93.64453125 93.703125 C94.09183594 94.13109375 94.53914063 94.5590625 95 95 C95 95.66 95 96.32 95 97 C95.99 97.33 96.98 97.66 98 98 C99.2210687 99.4520817 100.43802344 100.90821966 101.6171875 102.39453125 C103.14341172 104.25652161 103.14341172 104.25652161 105.9375 106.4375 C108.872728 108.8935071 111.18894066 111.40912334 113.60546875 114.3515625 C114.98698946 116.04622227 114.98698946 116.04622227 116.67578125 117.5859375 C118 119 118 119 118 121 C118.66 121 119.32 121 120 121 C121.20732451 122.44208206 122.41007018 123.8884092 123.58203125 125.359375 C125.13787265 127.25053641 125.13787265 127.25053641 127.9375 129.4375 C130.81007819 131.84108583 133.06005339 134.26800764 135.41015625 137.15625 C137.48895708 139.56704605 139.73290624 141.76434998 142 144 C144.66966856 146.64281793 147.33513307 149.28984162 150 151.9375 C150.69867188 152.62779297 151.39734375 153.31808594 152.1171875 154.02929688 C155.96801336 157.86195846 159.70103583 161.67655281 163 166 C163 166.66 163 167.32 163 168 C164.32 168.66 165.64 169.32 167 170 C167 170.66 167 171.32 167 172 C168.32 172.66 169.64 173.32 171 174 C171 174.66 171 175.32 171 176 C171.598125 176.268125 172.19625 176.53625 172.8125 176.8125 C174.99847854 177.99917406 176.41332594 179.09599113 178 181 C178 181.66 178 182.32 178 183 C179.32 183.66 180.64 184.32 182 185 C182 185.66 182 186.32 182 187 C183.32 187.66 184.64 188.32 186 189 C186 189.66 186 190.32 186 191 C186.99 191.33 187.98 191.66 189 192 C190.68732277 193.98260426 192.35366057 195.9832342 194 198 C194.99 198.66 195.98 199.32 197 200 C197 200.99 197 201.98 197 203 C197.66 203 198.32 203 199 203 C198.67 203.99 198.34 204.98 198 206 C193.53439944 206.14876435 189.07012509 206.25740399 184.6027832 206.32958984 C183.08462389 206.35969086 181.56663749 206.40058346 180.04907227 206.45263672 C177.86170801 206.52576394 175.6766483 206.55951745 173.48828125 206.5859375 C172.17384033 206.6173584 170.85939941 206.6487793 169.50512695 206.68115234 C164.65053452 205.73775798 163.79509224 203.98691931 161 200 C160.195625 199.195625 159.39125 198.39125 158.5625 197.5625 C156.59027108 195.59027108 154.79451107 193.62495812 153 191.5 C149.93874072 187.88000188 146.65773749 184.54341077 143.1875 181.3125 C142 180 142 180 142 178 C141.1646875 177.62875 141.1646875 177.62875 140.3125 177.25 C134.89044846 174.31916133 130.57575591 169.98885533 127 165 C127 164.34 127 163.68 127 163 C126.41734375 162.7421875 125.8346875 162.484375 125.234375 162.21875 C122.8197097 160.90165983 121.18259823 159.44911616 119.25 157.5 C118.63640625 156.8915625 118.0228125 156.283125 117.390625 155.65625 C116 154 116 154 116 152 C115.01 151.67 114.02 151.34 113 151 C112.67 150.01 112.34 149.02 112 148 C111.01 147.34 110.02 146.68 109 146 C109 145.34 109 144.68 109 144 C107.68 143.34 106.36 142.68 105 142 C105 141.34 105 140.68 105 140 C103.68 139.34 102.36 138.68 101 138 C101 137.34 101 136.68 101 136 C99.68 135.34 98.36 134.68 97 134 C97 133.34 97 132.68 97 132 C96.01 131.67 95.02 131.34 94 131 C91.8125 129.0625 91.8125 129.0625 90 127 C90 126.34 90 125.68 90 125 C88.68 124.34 87.36 123.68 86 123 C86 122.34 86 121.68 86 121 C85.01 120.67 84.02 120.34 83 120 C81.78353415 118.55339196 80.57134094 117.10241797 79.40234375 115.6171875 C77.96921892 113.96450315 76.47843322 112.70966546 74.75 111.375 C71.95899229 108.96458425 71.60699257 108.39915841 71 105 C70.01 104.67 69.02 104.34 68 104 C66.78011089 102.54932106 65.56429516 101.0946065 64.38671875 99.609375 C62.84715152 97.73360255 62.84715152 97.73360255 60 95.5 C56.88842347 92.90701956 54.54935791 90.13767128 52 87 C49.64075967 84.52279765 47.34459721 82.26298208 44.625 80.1875 C40.97989708 77.14991424 38.06449326 73.60884404 35 70 C34.4121875 69.33871094 33.824375 68.67742187 33.21875 67.99609375 C32.39890625 67.06990234 32.39890625 67.06990234 31.5625 66.125 C31.06878906 65.57070312 30.57507813 65.01640625 30.06640625 64.4453125 C29 63 29 63 29 61 C28.41734375 60.7421875 27.8346875 60.484375 27.234375 60.21875 C24.8197097 58.90165983 23.18259823 57.44911616 21.25 55.5 C20.63640625 54.8915625 20.0228125 54.283125 19.390625 53.65625 C18 52 18 52 18 50 C16.68 49.34 15.36 48.68 14 48 C14 47.34 14 46.68 14 46 C13.41734375 45.7421875 12.8346875 45.484375 12.234375 45.21875 C9.8197097 43.90165983 8.18259823 42.44911616 6.25 40.5 C5.63640625 39.8915625 5.0228125 39.283125 4.390625 38.65625 C3 37 3 37 3 35 C2.34 35 1.68 35 1 35 C0.67 35.99 0.34 36.98 0 38 C-1.9375 40.1875 -1.9375 40.1875 -4 42 C-4.66 42 -5.32 42 -6 42 C-6.66 43.32 -7.32 44.64 -8 46 C-8.66 46 -9.32 46 -10 46 C-10.66 47.32 -11.32 48.64 -12 50 C-12.66 50 -13.32 50 -14 50 C-14.38671875 50.87398437 -14.38671875 50.87398437 -14.78125 51.765625 C-16.09834017 54.1802903 -17.55088384 55.81740177 -19.5 57.75 C-20.1084375 58.36359375 -20.716875 58.9771875 -21.34375 59.609375 C-23 61 -23 61 -25 61 C-25.66 62.32 -26.32 63.64 -27 65 C-27.66 65 -28.32 65 -29 65 C-29.38671875 65.87398437 -29.38671875 65.87398437 -29.78125 66.765625 C-31.09834017 69.1802903 -32.55088384 70.81740177 -34.5 72.75 C-35.1084375 73.36359375 -35.716875 73.9771875 -36.34375 74.609375 C-38 76 -38 76 -40 76 C-40.23074219 76.72316406 -40.46148437 77.44632812 -40.69921875 78.19140625 C-42.24811635 81.53572269 -44.1447514 83.40573858 -46.8125 85.9375 C-50.9727199 89.95037206 -50.9727199 89.95037206 -54.75 94.3125 C-57 97 -57 97 -59.9375 99.4375 C-62.31113489 101.42360266 -64.05883746 103.1533727 -66 105.5 C-68.69951763 108.76338555 -71.73831744 111.29349745 -75 114 C-75.93840221 115.08575462 -76.85575151 116.19010014 -77.75 117.3125 C-78.4925 118.199375 -79.235 119.08625 -80 120 C-80.66 120 -81.32 120 -82 120 C-82.26039063 120.5775 -82.52078125 121.155 -82.7890625 121.75 C-85.64806248 127.06220642 -90.50952096 132.00846308 -95 136 C-95.66 136 -96.32 136 -97 136 C-97.66 137.32 -98.32 138.64 -99 140 C-99.66 140 -100.32 140 -101 140 C-101.66 141.32 -102.32 142.64 -103 144 C-103.66 144 -104.32 144 -105 144 C-105.33 144.99 -105.66 145.98 -106 147 C-107.9375 149.1875 -107.9375 149.1875 -110 151 C-110.66 151 -111.32 151 -112 151 C-112.66 152.32 -113.32 153.64 -114 155 C-114.66 155 -115.32 155 -116 155 C-116.33 156.32 -116.66 157.64 -117 159 C-117.66 159 -118.32 159 -119 159 C-119.66 160.32 -120.32 161.64 -121 163 C-121.66 163 -122.32 163 -123 163 C-123.66 164.32 -124.32 165.64 -125 167 C-125.66 167 -126.32 167 -127 167 C-127.2578125 167.58265625 -127.515625 168.1653125 -127.78125 168.765625 C-129.09834017 171.1802903 -130.55088384 172.81740177 -132.5 174.75 C-133.1084375 175.36359375 -133.716875 175.9771875 -134.34375 176.609375 C-136 178 -136 178 -138 178 C-138.2475 178.556875 -138.495 179.11375 -138.75 179.6875 C-141.05728664 183.95598028 -144.01303842 187.07553055 -147.6875 190.1875 C-151.88081875 193.75929496 -155.48456124 197.73069424 -159.1171875 201.86328125 C-162.74578802 205.98121586 -162.74578802 205.98121586 -166.07275391 206.22705078 C-167.36101074 206.21657715 -168.64926758 206.20610352 -169.9765625 206.1953125 C-170.66181 206.1924826 -171.3470575 206.18965271 -172.05307007 206.18673706 C-174.24389027 206.17553281 -176.43430316 206.15042859 -178.625 206.125 C-180.1093691 206.11497048 -181.5937446 206.10584458 -183.078125 206.09765625 C-186.71888261 206.07559294 -190.35940156 206.04106176 -194 206 C-194 201.73059596 -193.91980348 201.40770676 -191.25 198.5 C-190.7034375 197.90058594 -190.156875 197.30117188 -189.59375 196.68359375 C-189.0678125 196.12800781 -188.541875 195.57242188 -188 195 C-186.88625 193.7934375 -186.88625 193.7934375 -185.75 192.5625 C-184 191 -184 191 -182 191 C-181.01 189.02 -181.01 189.02 -180 187 C-179.34 187 -178.68 187 -178 187 C-177.01 185.02 -177.01 185.02 -176 183 C-175.34 183 -174.68 183 -174 183 C-173.731875 182.401875 -173.46375 181.80375 -173.1875 181.1875 C-172.00082594 179.00152146 -170.90400887 177.58667406 -169 176 C-168.34 176 -167.68 176 -167 176 C-166.01 174.02 -166.01 174.02 -165 172 C-164.34 172 -163.68 172 -163 172 C-162.34 170.68 -161.68 169.36 -161 168 C-160.34 168 -159.68 168 -159 168 C-158.7304248 167.41331543 -158.46084961 166.82663086 -158.18310547 166.22216797 C-153.76218728 157.91857792 -145.51636658 151.42385003 -138.875 144.875 C-130.58475979 136.76223902 -130.58475979 136.76223902 -123 128 C-121.3125 126.125 -121.3125 126.125 -120 125 C-119.34 125 -118.68 125 -118 125 C-117.62875 124.15695313 -117.62875 124.15695313 -117.25 123.296875 C-115.78725133 120.60907431 -114.03195127 118.53594518 -112 116.25 C-111.29875 115.45078125 -110.5975 114.6515625 -109.875 113.828125 C-108 112 -108 112 -106 112 C-105.505 110.515 -105.505 110.515 -105 109 C-103.5768172 107.80849812 -102.14930957 106.6214138 -100.69140625 105.47265625 C-98.25070807 103.34761419 -96.30350975 100.88533891 -94.296875 98.35546875 C-93.86890625 97.90816406 -93.4409375 97.46085937 -93 97 C-92.34 97 -91.68 97 -91 97 C-90.01 95.02 -90.01 95.02 -89 93 C-88.34 93 -87.68 93 -87 93 C-86.505 91.515 -86.505 91.515 -86 90 C-84.0625 87.8125 -84.0625 87.8125 -82 86 C-81.34 86 -80.68 86 -80 86 C-79.95875 85.443125 -79.9175 84.88625 -79.875 84.3125 C-78.55598589 80.82653414 -75.86969787 79.28404524 -73 77 C-72.01 75.515 -72.01 75.515 -71 74 C-70.34 74 -69.68 74 -69 74 C-68.01 72.02 -68.01 72.02 -67 70 C-66.34 70 -65.68 70 -65 70 C-64.61328125 69.12601563 -64.61328125 69.12601563 -64.21875 68.234375 C-62.90165983 65.8197097 -61.44911616 64.18259823 -59.5 62.25 C-58.8915625 61.63640625 -58.283125 61.0228125 -57.65625 60.390625 C-56 59 -56 59 -54 59 C-53.34 57.68 -52.68 56.36 -52 55 C-51.34 55 -50.68 55 -50 55 C-49.73445312 54.41299316 -49.46890625 53.82598633 -49.1953125 53.22119141 C-47.96596673 50.93675762 -46.65394008 49.34071866 -44.875 47.4609375 C-44.25544434 46.80270996 -43.63588867 46.14448242 -42.99755859 45.46630859 C-42.33836426 44.77617676 -41.67916992 44.08604492 -41 43.375 C-39.98993896 42.30693115 -39.98993896 42.30693115 -38.95947266 41.21728516 C-34.39172116 36.40528053 -29.73414442 31.69910762 -25.0078125 27.04296875 C-23.31092968 25.31637397 -21.76155414 23.57456602 -20.25 21.6875 C-17.76010999 18.71346471 -14.97564962 16.47970802 -12 14 C-10.2504514 12.05824747 -8.63962553 10.03845336 -7 8 C-6 7 -5 6 -4 5 C-2.65263027 3.34466005 -1.31665664 1.67987227 0 0 Z " fill="#B07E51" transform="translate(248,60)"/>
<path d="M0 0 C7.59 0 15.18 0 23 0 C23 3.63 23 7.26 23 11 C23.66 11 24.32 11 25 11 C26.78305524 13.63892176 27.99059621 15.97178863 29 19 C30.32303717 19.3721042 31.65737935 19.70630173 33 20 C33.495 20.99 33.495 20.99 34 22 C38.00913427 23.35019007 42.10926978 23.14814848 46.29243469 23.14717102 C47.13620877 23.15084771 47.97998285 23.1545244 48.84932584 23.1583125 C51.68121361 23.16933973 54.51306468 23.17319152 57.3449707 23.17700195 C59.3735872 23.18326723 61.40220255 23.18991408 63.43081665 23.19691467 C70.09579673 23.21794617 76.76077703 23.22831476 83.42578125 23.23828125 C85.7200592 23.24232885 88.01433703 23.24644577 90.30861473 23.25063133 C101.08504303 23.26967932 111.86146448 23.28391238 122.63790637 23.2922433 C135.08051804 23.30202108 147.52295207 23.32835644 159.96550113 23.36874419 C169.58174902 23.39888796 179.19794593 23.41371045 188.81424016 23.41702431 C194.55843848 23.41937637 200.30244694 23.42835753 206.04659462 23.45348549 C211.44992946 23.47674127 216.85294906 23.48100938 222.25632095 23.47072411 C224.23845276 23.47022806 226.22059996 23.47656855 228.2026844 23.49028015 C230.91103927 23.50796649 233.61825874 23.50090909 236.32661438 23.48774719 C237.10892231 23.49871644 237.89123024 23.50968568 238.69724447 23.52098733 C244.25164305 23.45592314 247.34157574 22.0094587 252 19 C252.99 18.67 253.98 18.34 255 18 C256.12949221 15.19623648 256.12949221 15.19623648 257 12 C257.350625 11.195625 257.70125 10.39125 258.0625 9.5625 C259.34060076 6.34343079 259.34060076 6.34343079 260 0 C267.59 0 275.18 0 283 0 C283.35074788 10.0547725 281.98990236 17.79253302 278 27 C277.34 27 276.68 27 276 27 C275.89171875 27.5878125 275.7834375 28.175625 275.671875 28.78125 C273.62237587 35.5493634 266.41754721 40.76947164 260.5 44.0625 C248.48246073 49.61763551 236.08307878 49.43805158 223.14331055 49.40405273 C221.16737484 49.4097656 219.19144243 49.41673338 217.21551514 49.42485046 C211.88268796 49.44269724 206.5500261 49.44162933 201.21717811 49.43590808 C196.74940187 49.43280343 192.28165681 49.43892292 187.81388503 49.44494683 C177.26497542 49.45896307 166.71614684 49.45745539 156.16723633 49.44604492 C145.32051913 49.43457086 134.47404941 49.44863417 123.62736481 49.4754414 C114.28168944 49.49766566 104.93609136 49.50422053 95.59039146 49.49836498 C90.02323559 49.49500976 84.45623824 49.49731431 78.88910484 49.51461601 C73.64974468 49.53019031 68.41074831 49.5260143 63.17140198 49.50731087 C61.26078163 49.50365361 59.35013369 49.50664866 57.43953896 49.51719666 C42.9756963 49.5908835 29.64755591 48.71407559 17 41 C17 40.34 17 39.68 17 39 C16.46375 38.79375 15.9275 38.5875 15.375 38.375 C9.55775013 35.00711849 5.88394985 29.96016303 3 24 C2.4225 22.865625 1.845 21.73125 1.25 20.5625 C-1.10969188 14.1466891 -0.16674495 6.66979791 0 0 Z " fill="#AF7E52" transform="translate(109,391)"/>
<path d="M0 0 C0 27.39 0 54.78 0 83 C-7.59 83 -15.18 83 -23 83 C-23.22688583 74.95846813 -23.40990934 66.91946578 -23.51812172 58.87558174 C-23.57008734 55.13946801 -23.64042607 51.40567587 -23.75439453 47.67089844 C-23.86390657 44.05911757 -23.92301092 40.44955297 -23.94877243 36.83623886 C-23.96710218 35.46535232 -24.00290004 34.09457308 -24.05730057 32.72464371 C-24.28534075 26.73817218 -24.41435005 21.94695938 -20.80609131 16.97991943 C-18.30900522 14.48283335 -15.72436579 12.24233232 -13 10 C-12.02819083 8.90450094 -11.08276259 7.78389436 -10.1875 6.625 C-4.66666667 0 -4.66666667 0 0 0 Z " fill="#AF7C4F" transform="translate(132,241)"/>
<path d="M0 0 C5.28421624 4.40351354 10.27964974 8.99305705 15 14 C15.56787735 14.48840363 16.1357547 14.97680725 16.72084045 15.48001099 C20.99491013 19.54653801 22.48841582 22.58364246 22.79467773 28.5078125 C22.79357785 31.04714474 22.75451952 33.58665822 22.68359375 36.125 C22.67051484 37.48117501 22.6605615 38.83738341 22.65357971 40.19360352 C22.62703176 43.73888754 22.55843482 47.28211853 22.48065186 50.82659912 C22.40864884 54.45312737 22.37699002 58.07999208 22.34179688 61.70703125 C22.26704183 68.8056008 22.1440661 75.90244915 22 83 C14.41 83 6.82 83 -1 83 C-1.02255088 72.32579925 -1.040915 61.6516142 -1.05181217 50.97739506 C-1.05704103 46.02146078 -1.06413874 41.06554358 -1.07543945 36.10961914 C-1.08626822 31.33101164 -1.09227681 26.55242062 -1.09487724 21.7738018 C-1.09673151 19.94646381 -1.10035216 18.11912676 -1.10573006 16.29179573 C-1.11294036 13.74146671 -1.11399095 11.19120663 -1.11352539 8.64086914 C-1.11712067 7.87770386 -1.12071594 7.11453857 -1.12442017 6.32824707 C-1.11405216 1.11405216 -1.11405216 1.11405216 0 0 Z " fill="#B07D50" transform="translate(370,241)"/>
<path d="M0 0 C2.64 0 5.28 0 8 0 C8.103125 0.639375 8.20625 1.27875 8.3125 1.9375 C8.6528125 2.9584375 8.6528125 2.9584375 9 4 C9.99 4.33 10.98 4.66 12 5 C13.28125 7.14453125 13.28125 7.14453125 14.5 9.8125 C16.05005397 13.1759184 17.54611182 16.200218 20 19 C20.66 19 21.32 19 22 19 C22.2165625 18.1028125 22.2165625 18.1028125 22.4375 17.1875 C22.8872439 15.43849596 23.42892341 13.71322977 24 12 C24.66 12 25.32 12 26 12 C26.103125 11.2575 26.20625 10.515 26.3125 9.75 C27.05090806 6.79636774 28.1223192 5.347101 30 3 C30.33 2.01 30.66 1.02 31 0 C33.64 0 36.28 0 39 0 C39 12.21 39 24.42 39 37 C36.69 37 34.38 37 32 37 C30.00383446 35.00383446 30.59016573 31.18298037 30.4375 28.4375 C30.39431641 27.72658203 30.35113281 27.01566406 30.30664062 26.28320312 C30.20028223 24.52238088 30.09961154 22.7612168 30 21 C28.68 23.31 27.36 25.62 26 28 C25.34 28 24.68 28 24 28 C23.67 29.32 23.34 30.64 23 32 C20.69 32 18.38 32 16 32 C15.54625 31.071875 15.0925 30.14375 14.625 29.1875 C13.0578367 25.96078611 13.0578367 25.96078611 11 23 C11 22.01 11 21.02 11 20 C10.34 20 9.68 20 9 20 C8.67 25.61 8.34 31.22 8 37 C5.36 37 2.72 37 0 37 C0 24.79 0 12.58 0 0 Z " fill="#AE7D52" transform="translate(376,338)"/>
<path d="M0 0 C8 0 8 0 9.875 1.64453125 C10.431875 2.71767578 10.431875 2.71767578 11 3.8125 C11.391875 4.52019531 11.78375 5.22789062 12.1875 5.95703125 C13 8 13 8 13 11 C13.66 11 14.32 11 15 11 C16.4606285 13.64738916 17 14.89448334 17 18 C18.32 18 19.64 18 21 18 C23.31 13.71 25.62 9.42 28 5 C28.66 5 29.32 5 30 5 C30.33 3.35 30.66 1.7 31 0 C33.64 0 36.28 0 39 0 C39 12.21 39 24.42 39 37 C36.69 37 34.38 37 32 37 C30.00383446 35.00383446 30.59016573 31.18298037 30.4375 28.4375 C30.39431641 27.72658203 30.35113281 27.01566406 30.30664062 26.28320312 C30.20028223 24.52238088 30.09961154 22.7612168 30 21 C29.54625 21.825 29.0925 22.65 28.625 23.5 C28.08875 24.325 27.5525 25.15 27 26 C26.34 26 25.68 26 25 26 C24.34 27.98 23.68 29.96 23 32 C20.69 32 18.38 32 16 32 C15.67 30.35 15.34 28.7 15 27 C14.34 27 13.68 27 13 27 C11.68 24.69 10.36 22.38 9 20 C8.67 25.61 8.34 31.22 8 37 C5.36 37 2.72 37 0 37 C0 24.79 0 12.58 0 0 Z " fill="#AE7F53" transform="translate(100,338)"/>
<path d="M0 0 C1.19012695 -0.00193359 1.19012695 -0.00193359 2.40429688 -0.00390625 C3.64083008 0.00189453 3.64083008 0.00189453 4.90234375 0.0078125 C5.73056641 0.00394531 6.55878906 0.00007813 7.41210938 -0.00390625 C8.60030273 -0.00197266 8.60030273 -0.00197266 9.8125 0 C10.89930054 0.00169189 10.89930054 0.00169189 12.00805664 0.00341797 C13.83984375 0.1328125 13.83984375 0.1328125 15.83984375 1.1328125 C15.83984375 1.7928125 15.83984375 2.4528125 15.83984375 3.1328125 C16.62359375 3.4009375 17.40734375 3.6690625 18.21484375 3.9453125 C20.83984375 5.1328125 20.83984375 5.1328125 22.83984375 8.1328125 C22.83984375 9.4528125 22.83984375 10.7728125 22.83984375 12.1328125 C23.49984375 12.1328125 24.15984375 12.1328125 24.83984375 12.1328125 C24.83984375 16.0928125 24.83984375 20.0528125 24.83984375 24.1328125 C24.17984375 24.1328125 23.51984375 24.1328125 22.83984375 24.1328125 C22.79859375 25.0196875 22.75734375 25.9065625 22.71484375 26.8203125 C21.41451725 31.74297712 18.24282941 33.61039112 14.0703125 36.25390625 C10.98133779 37.47110294 8.27644609 37.43462991 4.96484375 37.4453125 C3.77117187 37.46207031 2.5775 37.47882813 1.34765625 37.49609375 C-3.16697792 37.02854255 -6.41132554 35.65795556 -9.83984375 32.66796875 C-12.45482704 29.44624097 -13.16015625 28.42125196 -13.16015625 24.1328125 C-13.82015625 24.1328125 -14.48015625 24.1328125 -15.16015625 24.1328125 C-15.16015625 20.1728125 -15.16015625 16.2128125 -15.16015625 12.1328125 C-14.50015625 12.1328125 -13.84015625 12.1328125 -13.16015625 12.1328125 C-13.06734375 11.0809375 -13.06734375 11.0809375 -12.97265625 10.0078125 C-11.84661637 6.02336371 -10.02122359 4.13012115 -7.16015625 1.1328125 C-4.4303871 0.22288945 -2.80926651 0.00436657 0 0 Z M-3.16015625 9.1328125 C-5.35991367 11.60303189 -6.48732061 13.89548038 -7.16015625 17.1328125 C-6.94289479 20.62614802 -6.08749995 23.21034178 -4.16015625 26.1328125 C-1.6790896 28.25556318 0.64855614 29.43642147 3.83984375 30.1328125 C7.09969685 29.65772034 7.09969685 29.65772034 9.83984375 28.1328125 C10.87238281 27.72675781 10.87238281 27.72675781 11.92578125 27.3125 C13.98826968 26.28525652 13.98826968 26.28525652 14.73828125 24.1796875 C15.77252856 19.19495458 16.05206776 15.92596452 13.83984375 11.1328125 C13.17984375 11.1328125 12.51984375 11.1328125 11.83984375 11.1328125 C11.83984375 10.4728125 11.83984375 9.8128125 11.83984375 9.1328125 C6.19966716 7.3517041 2.3888592 6.35830477 -3.16015625 9.1328125 Z " fill="#AE7F54" transform="translate(305.16015625,337.8671875)"/>
<path d="M0 0 C0.79083984 -0.03738281 1.58167969 -0.07476562 2.39648438 -0.11328125 C7.67407296 -0.191726 10.75007099 0.73293855 14.91333008 4.00146484 C16.3125 5.375 16.3125 5.375 18.3125 8.375 C18.3125 9.695 18.3125 11.015 18.3125 12.375 C18.9725 12.375 19.6325 12.375 20.3125 12.375 C20.3125 16.335 20.3125 20.295 20.3125 24.375 C19.6525 24.375 18.9925 24.375 18.3125 24.375 C18.27125 25.261875 18.23 26.14875 18.1875 27.0625 C16.8871735 31.98516462 13.71548566 33.85257862 9.54296875 36.49609375 C6.45399404 37.71329044 3.74910234 37.67681741 0.4375 37.6875 C-0.75617188 37.70425781 -1.94984375 37.72101563 -3.1796875 37.73828125 C-7.69432167 37.27073005 -10.93866929 35.90014306 -14.3671875 32.91015625 C-16.98217079 29.68842847 -17.6875 28.66343946 -17.6875 24.375 C-18.3475 24.375 -19.0075 24.375 -19.6875 24.375 C-19.6875 20.415 -19.6875 16.455 -19.6875 12.375 C-19.0275 12.375 -18.3675 12.375 -17.6875 12.375 C-17.605 11.6325 -17.5225 10.89 -17.4375 10.125 C-16.53940201 6.83197405 -15.30333926 5.51523212 -12.6875 3.375 C-12.0275 3.375 -11.3675 3.375 -10.6875 3.375 C-10.6875 2.715 -10.6875 2.055 -10.6875 1.375 C-7.34934955 -0.29407523 -3.66669723 0.06417449 0 0 Z M-6.6875 9.375 C-6.6875 10.035 -6.6875 10.695 -6.6875 11.375 C-7.3475 11.375 -8.0075 11.375 -8.6875 11.375 C-10.4686084 17.01517659 -11.46200773 20.82598455 -8.6875 26.375 C-6.21728061 28.57475742 -3.92483212 29.70216436 -0.6875 30.375 C2.80583552 30.15773854 5.39002928 29.3023437 8.3125 27.375 C10.43525068 24.89393335 11.61610897 22.56628761 12.3125 19.375 C11.83740784 16.1151469 11.83740784 16.1151469 10.3125 13.375 C10.04179687 12.68664062 9.77109375 11.99828125 9.4921875 11.2890625 C8.46494402 9.22657407 8.46494402 9.22657407 6.359375 8.4765625 C1.37464208 7.44231519 -1.89434798 7.16277599 -6.6875 9.375 Z " fill="#AE8055" transform="translate(351.6875,337.625)"/>
<path d="M0 0 C3.95831809 -0.02892857 7.91660917 -0.04677427 11.875 -0.0625 C13.56689453 -0.07506836 13.56689453 -0.07506836 15.29296875 -0.08789062 C16.36933594 -0.09111328 17.44570313 -0.09433594 18.5546875 -0.09765625 C19.54968262 -0.10289307 20.54467773 -0.10812988 21.56982422 -0.11352539 C24 0 24 0 26 1 C26 1.66 26 2.32 26 3 C26.99 3 27.98 3 29 3 C29.33 4.32 29.66 5.64 30 7 C30.66 7 31.32 7 32 7 C32 10.96 32 14.92 32 19 C31.34 19 30.68 19 30 19 C29.67 20.65 29.34 22.3 29 24 C28.01 24 27.02 24 26 24 C26 24.99 26 25.98 26 27 C26.66 27 27.32 27 28 27 C30.8394052 30.67452438 32 32.26886581 32 37 C28.94997714 37.28773801 26.03916908 37.44422792 23 37 C21.125 34.6875 21.125 34.6875 20 32 C19.443125 31.443125 18.88625 30.88625 18.3125 30.3125 C17.879375 29.879375 17.44625 29.44625 17 29 C17 28.34 17 27.68 17 27 C14.36 27 11.72 27 9 27 C9.01160156 27.63808594 9.02320313 28.27617187 9.03515625 28.93359375 C9.04417969 29.75988281 9.05320312 30.58617187 9.0625 31.4375 C9.07410156 32.26121094 9.08570313 33.08492188 9.09765625 33.93359375 C9 36 9 36 8 37 C4.5 37.125 4.5 37.125 1 37 C0 36 0 36 -0.11352539 32.58178711 C-0.11336628 31.06363012 -0.10767226 29.54546771 -0.09765625 28.02734375 C-0.0962413 27.22970108 -0.09482635 26.43205841 -0.09336853 25.61024475 C-0.08775316 23.05262565 -0.07519812 20.49509282 -0.0625 17.9375 C-0.05748698 16.20768355 -0.05292373 14.47786574 -0.04882812 12.74804688 C-0.03777875 8.49866447 -0.02050386 4.24934688 0 0 Z M9 7 C9 11.29 9 15.58 9 20 C15.19917104 20.45625218 15.19917104 20.45625218 21 19 C22.79271391 15.51202512 22.79271391 15.51202512 24 12 C23.34 12 22.68 12 22 12 C21.67 10.68 21.34 9.36 21 8 C17.0186217 6.6728739 13.14954773 6.93084087 9 7 Z " fill="#AF8054" transform="translate(257,338)"/>
<path d="M0 0 C1.12591553 0.00523682 2.25183105 0.01047363 3.41186523 0.01586914 C4.62680664 0.0190918 5.84174805 0.02231445 7.09350586 0.02563477 C8.37290039 0.03401367 9.65229492 0.04239258 10.97045898 0.05102539 C12.2537207 0.05553711 13.53698242 0.06004883 14.85913086 0.06469727 C18.04211921 0.07652994 21.22501661 0.09301471 24.40795898 0.11352539 C25.7910468 2.87970102 25.52006095 5.12370539 25.50561523 8.21508789 C25.50311768 9.30644043 25.50062012 10.39779297 25.49804688 11.5222168 C25.48894287 12.91359863 25.47983887 14.30498047 25.47045898 15.73852539 C25.44983398 20.15227539 25.42920898 24.56602539 25.40795898 29.11352539 C15.83795898 29.11352539 6.26795898 29.11352539 -3.59204102 29.11352539 C-3.61266602 24.51415039 -3.63329102 19.91477539 -3.65454102 15.17602539 C-3.66364502 13.72333252 -3.67274902 12.27063965 -3.68212891 10.77392578 C-3.68462646 9.63947021 -3.68712402 8.50501465 -3.68969727 7.33618164 C-3.69493408 6.16837158 -3.7001709 5.00056152 -3.70556641 3.79736328 C-3.55519047 0.24234674 -3.54549465 0.15528445 0 0 Z " fill="#B07E51" transform="translate(255.592041015625,229.886474609375)"/>
<path d="M0 0 C4.599375 -0.020625 9.19875 -0.04125 13.9375 -0.0625 C15.39019287 -0.071604 16.84288574 -0.08070801 18.33959961 -0.09008789 C19.47405518 -0.09258545 20.60851074 -0.09508301 21.77734375 -0.09765625 C23.52905884 -0.10551147 23.52905884 -0.10551147 25.31616211 -0.11352539 C28 0 28 0 29 1 C29.08758003 2.99964982 29.10696576 5.0023611 29.09765625 7.00390625 C29.09515869 8.09775635 29.09266113 9.19160645 29.09008789 10.31860352 C29.08098389 11.71908936 29.07187988 13.1195752 29.0625 14.5625 C29.041875 18.996875 29.02125 23.43125 29 28 C19.43 28 9.86 28 0 28 C0 18.76 0 9.52 0 0 Z " fill="#AF7D51" transform="translate(252,262)"/>
<path d="M0 0 C8.91 0 17.82 0 27 0 C27 9.57 27 19.14 27 29 C18.09 29 9.18 29 0 29 C0 19.43 0 9.86 0 0 Z " fill="#AF7C50" transform="translate(221,230)"/>
<path d="M0 0 C8.91 0 17.82 0 27 0 C27 9.24 27 18.48 27 28 C18.09 28 9.18 28 0 28 C0 18.76 0 9.52 0 0 Z " fill="#AF7D50" transform="translate(221,262)"/>
<path d="M0 0 C0.72445312 -0.00386719 1.44890625 -0.00773437 2.1953125 -0.01171875 C5.39282879 -0.00581927 7.94582607 0.10694202 11 1.125 C12.125 6.875 12.125 6.875 11 9.125 C10.02417969 9.04121094 9.04835938 8.95742188 8.04296875 8.87109375 C6.77066406 8.76925781 5.49835938 8.66742188 4.1875 8.5625 C2.92292969 8.45808594 1.65835938 8.35367187 0.35546875 8.24609375 C-2.99581184 7.92902822 -2.99581184 7.92902822 -6 9.125 C-6 9.785 -6 10.445 -6 11.125 C-2.53547088 12.99051568 0.80040573 14.39905268 4.5625 15.5 C8.78505052 16.88374122 11.37442932 18.39838355 14 22.125 C14.55156805 25.98597632 14.35698156 28.29830586 12.8125 31.875 C9.82312585 35.58594722 7.20009341 36.99063169 2.44140625 37.5234375 C1.16136719 37.51570313 -0.11867188 37.50796875 -1.4375 37.5 C-3.35369141 37.51160156 -3.35369141 37.51160156 -5.30859375 37.5234375 C-9.21941804 37.10131678 -11.66986601 36.18243928 -15 34.125 C-16.40721244 31.21676095 -15.96926297 29.14048479 -15 26.125 C-7.57142857 27.125 -7.57142857 27.125 -4 28.125 C-4 28.785 -4 29.445 -4 30.125 C-3.236875 29.795 -2.47375 29.465 -1.6875 29.125 C1 28.125 1 28.125 4 28.125 C4 26.805 4 25.485 4 24.125 C2.89591797 23.96064453 2.89591797 23.96064453 1.76953125 23.79296875 C-8.34545579 22.14945038 -8.34545579 22.14945038 -12 19.125 C-12 18.465 -12 17.805 -12 17.125 C-12.99 16.795 -13.98 16.465 -15 16.125 C-15 12.495 -15 8.865 -15 5.125 C-13.68 4.465 -12.36 3.805 -11 3.125 C-11 2.465 -11 1.805 -11 1.125 C-7.29553447 -0.10982184 -3.8556992 -0.02058202 0 0 Z " fill="#AE7E53" transform="translate(67,337.875)"/>
<path d="M0 0 C0.72445313 -0.00386719 1.44890625 -0.00773437 2.1953125 -0.01171875 C5.39282879 -0.00581927 7.94582607 0.10694202 11 1.125 C11.79953138 4.41196233 12.09658936 5.83523192 11 9.125 C10.02417969 9.04121094 9.04835938 8.95742188 8.04296875 8.87109375 C6.77066406 8.76925781 5.49835938 8.66742188 4.1875 8.5625 C2.92292969 8.45808594 1.65835937 8.35367187 0.35546875 8.24609375 C-2.99581184 7.92902822 -2.99581184 7.92902822 -6 9.125 C-6 9.785 -6 10.445 -6 11.125 C-1.809673 13.38132992 2.30761624 14.94198163 6.8515625 16.28125 C9.38417812 17.27587722 11.06139727 18.19932128 13 20.125 C13.76851614 23.82630934 13.56539133 27.39677601 13 31.125 C11.1875 33.6875 11.1875 33.6875 9 35.125 C8.01 35.785 7.02 36.445 6 37.125 C-1.42533871 37.79606934 -9.59076852 38.39782099 -16 34.125 C-16.9375 31.9375 -16.9375 31.9375 -17 30.125 C-16.34 30.125 -15.68 30.125 -15 30.125 C-15 28.805 -15 27.485 -15 26.125 C-8.41333333 26.885 -8.41333333 26.885 -6.0625 28.25 C-2.66689221 29.69056088 0.41285966 28.72285672 4 28.125 C4 26.805 4 25.485 4 24.125 C2.89591797 23.96064453 2.89591797 23.96064453 1.76953125 23.79296875 C-8.34545579 22.14945038 -8.34545579 22.14945038 -12 19.125 C-12 18.465 -12 17.805 -12 17.125 C-12.99 16.795 -13.98 16.465 -15 16.125 C-15.02696365 14.33341511 -15.04637917 12.54171527 -15.0625 10.75 C-15.07410156 9.75226563 -15.08570313 8.75453125 -15.09765625 7.7265625 C-15 5.125 -15 5.125 -14 3.125 C-13.01 3.125 -12.02 3.125 -11 3.125 C-11 2.465 -11 1.805 -11 1.125 C-7.29553447 -0.10982184 -3.8556992 -0.02058202 0 0 Z " fill="#AF7E53" transform="translate(436,337.875)"/>
<path d="M0 0 C3.77081722 -0.02899599 7.54160583 -0.04679729 11.3125 -0.0625 C12.38435547 -0.07087891 13.45621094 -0.07925781 14.56054688 -0.08789062 C16.10258789 -0.09272461 16.10258789 -0.09272461 17.67578125 -0.09765625 C18.62364502 -0.10289307 19.57150879 -0.10812988 20.5480957 -0.11352539 C23 0 23 0 26 1 C26 1.66 26 2.32 26 3 C26.99 3 27.98 3 29 3 C32.0960947 8.03115389 32.8016521 12.23427144 32 18 C30.5 21.5625 30.5 21.5625 29 24 C28.01 24 27.02 24 26 24 C26 24.66 26 25.32 26 26 C22.38132441 27.2062252 19.07493749 27.10816918 15.3125 27.0625 C14.61060547 27.05798828 13.90871094 27.05347656 13.18554688 27.04882812 C11.45699462 27.03706927 9.72848635 27.01913454 8 27 C8 30.3 8 33.6 8 37 C5.66705225 37.04241723 3.33297433 37.04092937 1 37 C0 36 0 36 -0.11352539 32.58178711 C-0.11336628 31.06363012 -0.10767226 29.54546771 -0.09765625 28.02734375 C-0.0962413 27.22970108 -0.09482635 26.43205841 -0.09336853 25.61024475 C-0.08775316 23.05262565 -0.07519812 20.49509282 -0.0625 17.9375 C-0.05748698 16.20768355 -0.05292373 14.47786574 -0.04882812 12.74804688 C-0.03777875 8.49866447 -0.02050386 4.24934688 0 0 Z M8 7 C8 11.29 8 15.58 8 20 C10.10375 20.0309375 10.10375 20.0309375 12.25 20.0625 C13.03890625 20.07410156 13.8278125 20.08570313 14.640625 20.09765625 C16.93440872 20.00271487 18.82681674 19.73231996 21 19 C22.94494417 16.49935749 23.00125341 15.06267052 22.9375 11.875 C22.28990963 8.90094995 22.28990963 8.90094995 20 7.625 C15.9189952 6.77479067 12.16775736 6.87558933 8 7 Z " fill="#AE7D50" transform="translate(147,338)"/>
<path d="M0 0 C8.91 0 17.82 0 27 0 C27 2.31 27 4.62 27 7 C20.73 7 14.46 7 8 7 C8 9.64 8 12.28 8 15 C13.94 15 19.88 15 26 15 C26 17.31 26 19.62 26 22 C20.06 22 14.12 22 8 22 C8 24.64 8 27.28 8 30 C14.93 30 21.86 30 29 30 C29 31.98 29 33.96 29 36 C28 37 28 37 25.31616211 37.11352539 C24.14835205 37.10828857 22.98054199 37.10305176 21.77734375 37.09765625 C20.64288818 37.09515869 19.50843262 37.09266113 18.33959961 37.09008789 C16.1605603 37.07643188 16.1605603 37.07643188 13.9375 37.0625 C7.0384375 37.0315625 7.0384375 37.0315625 0 37 C0 24.79 0 12.58 0 0 Z " fill="#AC7B51" transform="translate(211,338)"/>
<path d="M0 0 C-1.01575447 3.27298663 -1.96591102 3.98198057 -5.05208206 5.61332989 C-9.26084649 7.31054288 -13.11138746 7.41696024 -17.60418701 7.3742218 C-18.44517952 7.37819621 -19.28617203 7.38217061 -20.15264916 7.38626546 C-22.95708383 7.39585301 -25.76100956 7.38409202 -28.56542969 7.37231445 C-30.58127531 7.37474351 -32.59711972 7.37846394 -34.61296082 7.38337708 C-40.07751401 7.39277163 -45.54188766 7.38337391 -51.00642681 7.37004495 C-56.72386894 7.35872255 -62.44130233 7.36283841 -68.15875244 7.36479187 C-77.75544161 7.36567431 -87.35206007 7.35460253 -96.94873047 7.33618164 C-108.0522697 7.31499071 -119.15570553 7.31150956 -130.25926089 7.3177436 C-140.93639669 7.32343175 -151.61349599 7.31779963 -162.29062653 7.30657005 C-166.83762536 7.30191925 -171.38460191 7.30105226 -175.93160248 7.3031559 C-181.27992317 7.30503518 -186.62813812 7.29696269 -191.97643471 7.2810955 C-193.94249598 7.27684236 -195.90856797 7.27600898 -197.87463188 7.27878571 C-200.55112099 7.28199319 -203.22729125 7.27296221 -205.90374756 7.26069641 C-206.6878786 7.26447573 -207.47200963 7.26825506 -208.27990222 7.27214891 C-212.06126621 7.24133707 -213.7736447 7.15090354 -217 5 C-217 4.34 -217 3.68 -217 3 C-215.38348777 3.00414807 -215.38348777 3.00414807 -213.73431873 3.00837994 C-187.52865136 3.07493821 -161.32299494 3.12425808 -135.11726093 3.15543652 C-122.44443574 3.17091439 -109.77166634 3.19202155 -97.09887695 3.22631836 C-86.05503862 3.25619247 -75.01124068 3.2755683 -63.96736306 3.28226548 C-58.11812254 3.2861811 -52.26899761 3.29540257 -46.41979408 3.31719017 C-40.91643343 3.33752383 -35.41323619 3.34384008 -29.90984154 3.33932304 C-27.8881733 3.34014964 -25.86649969 3.34613377 -23.84486389 3.35761642 C-21.08760232 3.37251161 -18.33096019 3.36896441 -15.57368469 3.36076355 C-14.77114976 3.36950207 -13.96861482 3.3782406 -13.14176065 3.38724393 C-8.05182495 3.34624025 -4.4263918 0 0 0 Z " fill="#B28664" transform="translate(361,411)"/>
<path d="M0 0 C2.64 0 5.28 0 8 0 C8 9.9 8 19.8 8 30 C14.27 30 20.54 30 27 30 C27 32.31 27 34.62 27 37 C22.68751391 37.02886537 18.37505238 37.04675255 14.0625 37.0625 C12.83080078 37.07087891 11.59910156 37.07925781 10.33007812 37.08789062 C9.16025391 37.09111328 7.99042969 37.09433594 6.78515625 37.09765625 C5.15912476 37.10551147 5.15912476 37.10551147 3.50024414 37.11352539 C1 37 1 37 0 36 C-0.08855161 33.3337397 -0.11524673 30.69352886 -0.09765625 28.02734375 C-0.0962413 27.22970108 -0.09482635 26.43205841 -0.09336853 25.61024475 C-0.08775316 23.05262565 -0.07519812 20.49509282 -0.0625 17.9375 C-0.05748698 16.20768355 -0.05292373 14.47786574 -0.04882812 12.74804688 C-0.03777875 8.49866447 -0.02050386 4.24934688 0 0 Z " fill="#AD7A4E" transform="translate(181,338)"/>
<path d="M0 0 C2.64 0 5.28 0 8 0 C8.103125 0.639375 8.20625 1.27875 8.3125 1.9375 C8.6528125 2.9584375 8.6528125 2.9584375 9 4 C9.99 4.33 10.98 4.66 12 5 C13.28125 7.14453125 13.28125 7.14453125 14.5 9.8125 C16.05005397 13.1759184 17.54611182 16.200218 20 19 C20.66 19 21.32 19 22 19 C22.2165625 18.1028125 22.2165625 18.1028125 22.4375 17.1875 C22.8872439 15.43849596 23.42892341 13.71322977 24 12 C24.66 12 25.32 12 26 12 C26.103125 11.2575 26.20625 10.515 26.3125 9.75 C27.05090806 6.79636774 28.1223192 5.347101 30 3 C30.33 2.01 30.66 1.02 31 0 C31.99 0 32.98 0 34 0 C33.34770292 3.21751031 32.18534594 5.71650015 30.5625 8.5625 C29.91474609 9.70912109 29.91474609 9.70912109 29.25390625 10.87890625 C28.22469183 12.61991382 27.12186516 14.31720226 26 16 C25.34 16 24.68 16 24 16 C24 17.32 24 18.64 24 20 C22.02 20.66 20.04 21.32 18 22 C15.37613513 18.93882432 15 18.26826873 15 14 C12.03 14 9.06 14 6 14 C6 21.26 6 28.52 6 36 C3.03 36.495 3.03 36.495 0 37 C0 24.79 0 12.58 0 0 Z " fill="#B28458" transform="translate(376,338)"/>
<path d="M0 0 C2.64 0 5.28 0 8 0 C8 12.21 8 24.42 8 37 C5.36 37 2.72 37 0 37 C0 24.79 0 12.58 0 0 Z " fill="#B07D51" transform="translate(85,338)"/>
<path d="M0 0 C1.98 1.65 3.96 3.3 6 5 C5.01 5.33 4.02 5.66 3 6 C2.34 5.67 1.68 5.34 1 5 C1 30.41 1 55.82 1 82 C0.01 82.495 0.01 82.495 -1 83 C-1.02312328 72.32580302 -1.04091501 61.65161194 -1.05181217 50.97739506 C-1.05704103 46.02146078 -1.06413874 41.06554358 -1.07543945 36.10961914 C-1.08626822 31.33101164 -1.09227681 26.55242062 -1.09487724 21.7738018 C-1.09673151 19.94646381 -1.10035216 18.11912676 -1.10573006 16.29179573 C-1.11294036 13.74146671 -1.11399095 11.19120663 -1.11352539 8.64086914 C-1.11712067 7.87770386 -1.12071594 7.11453857 -1.12442017 6.32824707 C-1.11405216 1.11405216 -1.11405216 1.11405216 0 0 Z " fill="#A57041" transform="translate(370,241)"/>
<path d="M0 0 C0.66 0 1.32 0 2 0 C2.33 0.66 2.66 1.32 3 2 C4.32 1.67 5.64 1.34 7 1 C6.67 3.31 6.34 5.62 6 8 C5.34 7.67 4.68 7.34 4 7 C3.67 12.61 3.34 18.22 3 24 C0.36 24 -2.28 24 -5 24 C-4.67 17.4 -4.34 10.8 -4 4 C-3.01 3.67 -2.02 3.34 -1 3 C-0.67 2.01 -0.34 1.02 0 0 Z " fill="#AE7D50" transform="translate(105,351)"/>
<path d="M0 0 C8.91 0 17.82 0 27 0 C28.38308781 2.76617563 28.11210196 5.01018 28.09765625 8.1015625 C28.09443359 9.31328125 28.09121094 10.525 28.08789062 11.7734375 C28.07951172 13.04445312 28.07113281 14.31546875 28.0625 15.625 C28.05798828 16.90375 28.05347656 18.1825 28.04882812 19.5 C28.03701203 22.66671292 28.02053815 25.83333356 28 29 C26.35 28.67 24.7 28.34 23 28 C23.66 27.67 24.32 27.34 25 27 C25 19.08 25 11.16 25 3 C17.08 3 9.16 3 1 3 C0.67 2.01 0.34 1.02 0 0 Z " fill="#B7916C" transform="translate(253,230)"/>
<path d="M0 0 C0.66 0.33 1.32 0.66 2 1 C2 21.13 2 41.26 2 62 C-5.26 62 -12.52 62 -20 62 C-20 61.67 -20 61.34 -20 61 C-15 60 -15 60 0 60 C0 40.2 0 20.4 0 0 Z " fill="#A9825B" transform="translate(390,262)"/>
<path d="M0 0 C1.485 0.99 1.485 0.99 3 2 C3.1973758 4.64064901 3.23409171 7.05744124 3.125 9.6875 C3.080898 11.08708987 3.04179632 12.48684666 3.0078125 13.88671875 C2.98348145 14.50764404 2.95915039 15.12856934 2.93408203 15.76831055 C3.02553892 18.86463439 3.56192271 21.93345895 4 25 C11.26 25 18.52 25 26 25 C26 25.99 26 26.98 26 28 C17.42 28 8.84 28 0 28 C0 18.76 0 9.52 0 0 Z " fill="#B3865C" transform="translate(252,231)"/>
<path d="M0 0 C1.32 0.33 2.64 0.66 4 1 C3.67 3.31 3.34 5.62 3 8 C3.66 8.33 4.32 8.66 5 9 C4.41196203 12.02419525 3.77321882 15.01758453 3 18 C3.66 18.33 4.32 18.66 5 19 C5 19.66 5 20.32 5 21 C4.34 21 3.68 21 3 21 C3.08708669 22.45945288 3.19526907 23.91765868 3.3125 25.375 C3.37050781 26.18710937 3.42851562 26.99921875 3.48828125 27.8359375 C3.82990528 30.37921338 3.82990528 30.37921338 7 32 C6.67 32.99 6.34 33.98 6 35 C3.03 35.495 3.03 35.495 0 36 C0 24.12 0 12.24 0 0 Z " fill="#B28257" transform="translate(147,338)"/>
<path d="M0 0 C3.96930989 -0.02465881 7.93859034 -0.04284023 11.90795898 -0.05493164 C13.25920386 -0.05997057 14.61044326 -0.06680177 15.96166992 -0.07543945 C17.90020434 -0.08752419 19.838778 -0.09269828 21.77734375 -0.09765625 C23.52905884 -0.10551147 23.52905884 -0.10551147 25.31616211 -0.11352539 C28 0 28 0 29 1 C29.08758003 2.99964982 29.10696576 5.0023611 29.09765625 7.00390625 C29.09443359 8.21884766 29.09121094 9.43378906 29.08789062 10.68554688 C29.07951172 11.96494141 29.07113281 13.24433594 29.0625 14.5625 C29.05798828 15.84576172 29.05347656 17.12902344 29.04882812 18.45117188 C29.03699545 21.63416022 29.02051068 24.81705762 29 28 C27.68 27.67 26.36 27.34 25 27 C25.33 18.42 25.66 9.84 26 1 C18.08 1.33 10.16 1.66 2 2 C1.67 3.98 1.34 5.96 1 8 C0.67 8 0.34 8 0 8 C0 5.36 0 2.72 0 0 Z " fill="#AA8768" transform="translate(252,262)"/>
<path d="M0 0 C0 4.95 0 9.9 0 15 C-0.66 13.68 -1.32 12.36 -2 11 C-2.33 10.67 -2.66 10.34 -3 10 C-3.99 10.66 -4.98 11.32 -6 12 C-5.67 10.68 -5.34 9.36 -5 8 C-5.99 8 -6.98 8 -8 8 C-8.33 9.32 -8.66 10.64 -9 12 C-9.33 11.67 -9.66 11.34 -10 11 C-10.43570313 11.53109375 -10.87140625 12.0621875 -11.3203125 12.609375 C-14.91300657 16.87083897 -18.18480366 20.18134848 -23 23 C-22.46133395 19.0318268 -20.60656261 17.32076273 -17.75 14.625 C-15.0982052 12.06971039 -12.54047659 9.57261955 -10.25 6.6875 C-4.65116279 0 -4.65116279 0 0 0 Z " fill="#B48652" transform="translate(132,241)"/>
<path d="M0 0 C0.33 0 0.66 0 1 0 C1 8.25 1 16.5 1 25 C1.66 24.67 2.32 24.34 3 24 C4.6674606 23.91573906 6.33825187 23.89274857 8.0078125 23.90234375 C8.99394531 23.90556641 9.98007813 23.90878906 10.99609375 23.91210938 C12.02863281 23.92048828 13.06117188 23.92886719 14.125 23.9375 C15.68541016 23.94426758 15.68541016 23.94426758 17.27734375 23.95117188 C19.85158687 23.96298033 22.42580053 23.98091615 25 24 C25 18.06 25 12.12 25 6 C25.66 6 26.32 6 27 6 C27 12.6 27 19.2 27 26 C18.09 26 9.18 26 0 26 C0 17.42 0 8.84 0 0 Z " fill="#A17043" transform="translate(221,264)"/>
<path d="M0 0 C0.66 0.33 1.32 0.66 2 1 C2.37890625 3.765625 2.37890625 3.765625 2.5625 7.25 C2.78583049 11.2790644 3.2085267 15.04957624 4 19 C3.68404492 20.67004829 3.34820041 22.33637583 3 24 C3.0487703 25.35473063 3.11230439 26.70897895 3.1875 28.0625 C3 32 3 32 0.98828125 34.24609375 C0.33214844 34.82488281 -0.32398438 35.40367187 -1 36 C-1.02468447 31.19450253 -1.04285255 26.38904182 -1.05493164 21.58349609 C-1.05996621 19.94807289 -1.06679427 18.3126542 -1.07543945 16.67724609 C-1.08754335 14.32909025 -1.093237 11.98099381 -1.09765625 9.6328125 C-1.10281754 8.89942657 -1.10797882 8.16604065 -1.11329651 7.41043091 C-1.11387171 2.22774341 -1.11387171 2.22774341 0 0 Z " fill="#AF825D" transform="translate(212,339)"/>
<path d="M0 0 C0.99 0 1.98 0 3 0 C4.23060421 2.46120841 4.2057723 4.25776866 4.31640625 7.0078125 C4.37924805 8.48701172 4.37924805 8.48701172 4.44335938 9.99609375 C4.48267578 11.02863281 4.52199219 12.06117188 4.5625 13.125 C4.60568359 14.16527344 4.64886719 15.20554687 4.69335938 16.27734375 C4.7996288 18.85142528 4.90166583 21.42560508 5 24 C3.68 24 2.36 24 1 24 C0.67 19.05 0.34 14.1 0 9 C-1.32 11.31 -2.64 13.62 -4 16 C-4.66 16 -5.32 16 -6 16 C-6.33 16.99 -6.66 17.98 -7 19 C-7 17.35 -7 15.7 -7 14 C-6.34 14 -5.68 14 -5 14 C-4.7834375 12.576875 -4.7834375 12.576875 -4.5625 11.125 C-4 8 -4 8 -3 6 C-2.01 6 -1.02 6 0 6 C0 4.02 0 2.04 0 0 Z " fill="#AD8660" transform="translate(406,350)"/>
<path d="M0 0 C2.06654701 0.56882992 4.12812466 1.15572965 6.1875 1.75 C7.33605469 2.07484375 8.48460937 2.3996875 9.66796875 2.734375 C13.19619275 4.07452105 15.40860111 5.25389072 18 8 C18.48828125 10.796875 18.48828125 10.796875 18.3125 13.75 C18.24482422 15.22726562 18.24482422 15.22726562 18.17578125 16.734375 C18.11777344 17.48203125 18.05976563 18.2296875 18 19 C17.34 19.33 16.68 19.66 16 20 C16 16.37 16 12.74 16 9 C11.00703705 6.0554321 6.66442374 5.36504064 1 5 C1 6.32 1 7.64 1 9 C3.97 9.495 3.97 9.495 7 10 C6.67 10.66 6.34 11.32 6 12 C4.58208592 11.54554036 3.16571954 11.08625056 1.75 10.625 C0.96109375 10.36976563 0.1721875 10.11453125 -0.640625 9.8515625 C-2.86627958 9.04826333 -4.90931672 8.10288338 -7 7 C-6.67 6.01 -6.34 5.02 -6 4 C-4.35 4.33 -2.7 4.66 -1 5 C-0.67 3.35 -0.34 1.7 0 0 Z " fill="#AE8760" transform="translate(431,350)"/>
<path d="M0 0 C0.99 0 1.98 0 3 0 C2.34770292 3.21751031 1.18534594 5.71650015 -0.4375 8.5625 C-1.08525391 9.70912109 -1.08525391 9.70912109 -1.74609375 10.87890625 C-2.77530817 12.61991382 -3.87813484 14.31720226 -5 16 C-5.66 16 -6.32 16 -7 16 C-7 17.32 -7 18.64 -7 20 C-8.98 20.66 -10.96 21.32 -13 22 C-15.8962963 18.47407407 -15.8962963 18.47407407 -16.4375 16 C-17.21922704 13.22052609 -18.89430695 11.9019163 -21 10 C-20.34 8.68 -19.68 7.36 -19 6 C-18.44570313 6.9384375 -17.89140625 7.876875 -17.3203125 8.84375 C-16.5889246 10.06272984 -15.85713286 11.28146745 -15.125 12.5 C-14.76019531 13.12003906 -14.39539063 13.74007813 -14.01953125 14.37890625 C-13.0677482 15.95367458 -12.03889741 17.48129053 -11 19 C-10.34 19 -9.68 19 -9 19 C-8.7834375 18.1028125 -8.7834375 18.1028125 -8.5625 17.1875 C-8.1127561 15.43849596 -7.57107659 13.71322977 -7 12 C-6.34 12 -5.68 12 -5 12 C-4.896875 11.2575 -4.79375 10.515 -4.6875 9.75 C-3.94909194 6.79636774 -2.8776808 5.347101 -1 3 C-0.67 2.01 -0.34 1.02 0 0 Z " fill="#AC8763" transform="translate(407,338)"/>
<path d="M0 0 C0.99 0 1.98 0 3 0 C2.99476318 0.8470752 2.98952637 1.69415039 2.98413086 2.56689453 C2.96701465 5.73144273 2.95451374 8.8959672 2.94506836 12.06054688 C2.94006214 13.4261147 2.93325518 14.79167724 2.92456055 16.15722656 C2.91233169 18.12823118 2.90727134 20.0992761 2.90234375 22.0703125 C2.89710693 23.25383301 2.89187012 24.43735352 2.88647461 25.65673828 C2.99529823 28.86153532 3.39482517 31.85476612 4 35 C3.01 35 2.02 35 1 35 C0.25265639 30.34785065 -0.11936092 25.90132058 -0.09765625 21.19140625 C-0.09443359 19.95068359 -0.09121094 18.70996094 -0.08789062 17.43164062 C-0.07951172 16.15482422 -0.07113281 14.87800781 -0.0625 13.5625 C-0.05798828 12.25861328 -0.05347656 10.95472656 -0.04882812 9.61132812 C-0.03709251 6.40750448 -0.02067363 3.20377637 0 0 Z " fill="#AF8560" transform="translate(181,338)"/>
<path d="M0 0 C3 3 3 3 3.34057617 5.91088867 C3.32486572 7.0682251 3.30915527 8.22556152 3.29296875 9.41796875 C3.28330078 10.67158203 3.27363281 11.92519531 3.26367188 13.21679688 C3.23853516 14.52712891 3.21339844 15.83746094 3.1875 17.1875 C3.17244967 18.52277163 3.15876187 19.85805937 3.14648438 21.19335938 C3.11107694 24.46264576 3.0616889 27.73112093 3 31 C2.01 31 1.02 31 0 31 C0 20.77 0 10.54 0 0 Z " fill="#9F846B" transform="translate(257,339)"/>
<path d="M0 0 C1.33332095 2.6666419 0.67102033 4.16680303 0 7 C-0.66 6.67 -1.32 6.34 -2 6 C-2.33 11.61 -2.66 17.22 -3 23 C-5.64 23 -8.28 23 -11 23 C-10.34 21.02 -9.68 19.04 -9 17 C-7.35 16.67 -5.7 16.34 -4 16 C-4.09539062 15.08476562 -4.19078125 14.16953125 -4.2890625 13.2265625 C-4.39992188 12.03804688 -4.51078125 10.84953125 -4.625 9.625 C-4.74101563 8.44164062 -4.85703125 7.25828125 -4.9765625 6.0390625 C-4.98429687 5.03617187 -4.99203125 4.03328125 -5 3 C-3 1 -3 1 0 0 Z " fill="#A5724C" transform="translate(111,352)"/>
<path d="M0 0 C1.4540625 0.0309375 1.4540625 0.0309375 2.9375 0.0625 C1.9475 0.5575 1.9475 0.5575 0.9375 1.0625 C0.94910156 1.70058594 0.96070313 2.33867187 0.97265625 2.99609375 C0.98167969 3.82238281 0.99070312 4.64867187 1 5.5 C1.01160156 6.32371094 1.02320313 7.14742188 1.03515625 7.99609375 C0.9375 10.0625 0.9375 10.0625 -0.0625 11.0625 C-2.39547433 11.10342937 -4.72955225 11.10491723 -7.0625 11.0625 C-7.3925 9.4125 -7.7225 7.7625 -8.0625 6.0625 C-7.0725 6.0625 -6.0825 6.0625 -5.0625 6.0625 C-4.918125 5.258125 -4.77375 4.45375 -4.625 3.625 C-3.8465 0.0785 -3.8465 0.0785 0 0 Z " fill="#AB7B4C" transform="translate(265.0625,363.9375)"/>
<path d="M0 0 C8.91 0 17.82 0 27 0 C27 0.99 27 1.98 27 3 C26.34 3 25.68 3 25 3 C24.67 2.67 24.34 2.34 24 2 C24 2.33 24 2.66 24 3 C16.41 3 8.82 3 1 3 C0.67 2.01 0.34 1.02 0 0 Z " fill="#AF8766" transform="translate(221,230)"/>
<path d="M0 0 C1.98 0.99 3.96 1.98 6 3 C5.01 3.495 5.01 3.495 4 4 C4.08378906 4.62648438 4.16757812 5.25296875 4.25390625 5.8984375 C4.35574219 6.71570313 4.45757812 7.53296875 4.5625 8.375 C4.66691406 9.18710937 4.77132813 9.99921875 4.87890625 10.8359375 C5 13 5 13 4 15 C2.125 14.8125 2.125 14.8125 0 14 C-1.75086487 11.45328746 -2.1017334 9.72303381 -1.671875 6.66796875 C-1.17693292 4.42305289 -0.62636648 2.2115555 0 0 Z " fill="#B07C4F" transform="translate(336,351)"/>
<path d="M0 0 C5.27405053 0.41365102 8.17729898 1.28973136 12 5 C13.53214888 8.06429776 13.22938548 10.6165642 13 14 C11.75 16.875 11.75 16.875 10 19 C7.8125 19.8125 7.8125 19.8125 6 20 C6 19.34 6 18.68 6 18 C6.66 18 7.32 18 8 18 C8 17.01 8 16.02 8 15 C8.66 15 9.32 15 10 15 C9.67 12.03 9.34 9.06 9 6 C8.01 5.67 7.02 5.34 6 5 C6 4.34 6 3.68 6 3 C3.03 2.505 3.03 2.505 0 2 C0 1.34 0 0.68 0 0 Z " fill="#AB8763" transform="translate(68,353)"/>
<path d="M0 0 C7.59 0 15.18 0 23 0 C23 3.96 23 7.92 23 12 C22.34 11.34 21.68 10.68 21 10 C21 7.36 21 4.72 21 2 C14.07 2 7.14 2 0 2 C0 1.34 0 0.68 0 0 Z " fill="#AD8764" transform="translate(369,391)"/>
<path d="M0 0 C0.89203125 0.11085938 1.7840625 0.22171875 2.703125 0.3359375 C3.37859375 0.43132812 4.0540625 0.52671875 4.75 0.625 C4.75 1.285 4.75 1.945 4.75 2.625 C5.74 2.295 6.73 1.965 7.75 1.625 C8.08 2.615 8.41 3.605 8.75 4.625 C7.43 4.955 6.11 5.285 4.75 5.625 C4.75 4.965 4.75 4.305 4.75 3.625 C3.43 3.625 2.11 3.625 0.75 3.625 C0.75 4.285 0.75 4.945 0.75 5.625 C-0.24 5.955 -1.23 6.285 -2.25 6.625 C-4.07421875 5.62890625 -4.07421875 5.62890625 -5.9375 4.1875 C-6.56011719 3.71441406 -7.18273437 3.24132812 -7.82421875 2.75390625 C-8.29472656 2.38136719 -8.76523437 2.00882812 -9.25 1.625 C-5.9353333 -0.40407167 -3.8184021 -0.50242133 0 0 Z " fill="#B17B4D" transform="translate(355.25,339.375)"/>
<path d="M0 0 C0 2 0 2 -1.875 4.125 C-4 6 -4 6 -6 6 C-6.2578125 6.57234375 -6.515625 7.1446875 -6.78125 7.734375 C-8.11365942 10.21128995 -9.65056118 12.1341166 -11.5 14.25 C-12.1084375 14.95640625 -12.716875 15.6628125 -13.34375 16.390625 C-15 18 -15 18 -17 18 C-17.3125 15.6875 -17.3125 15.6875 -17 13 C-14.5625 11.3125 -14.5625 11.3125 -12 10 C-11.67 9.34 -11.34 8.68 -11 8 C-10.01 8 -9.02 8 -8 8 C-8.33 7.01 -8.66 6.02 -9 5 C-4.22727273 0 -4.22727273 0 0 0 Z " fill="#AC845F" transform="translate(172,174)"/>
<path d="M0 0 C3.46941546 0.45822468 6.67395049 0.89131683 10 2 C9.67 3.32 9.34 4.64 9 6 C6.69 5.67 4.38 5.34 2 5 C4.475 6.98 4.475 6.98 7 9 C6.67 9.66 6.34 10.32 6 11 C2.5625 9.75 2.5625 9.75 -1 8 C-1.9375 5.8125 -1.9375 5.8125 -2 4 C-1.34 4 -0.68 4 0 4 C0 2.68 0 1.36 0 0 Z " fill="#B48956" transform="translate(421,364)"/>
<path d="M0 0 C2 2 2 2 2.16699219 4.67382812 C2.12735352 5.78177734 2.08771484 6.88972656 2.046875 8.03125 C2.00433594 9.23394531 1.96179688 10.43664062 1.91796875 11.67578125 C1.86253906 12.93777344 1.80710937 14.19976562 1.75 15.5 C1.71003906 16.76199219 1.67007813 18.02398437 1.62890625 19.32421875 C1.25531878 28.74468122 1.25531878 28.74468122 -1 31 C-1.02465622 26.74585377 -1.04283899 22.49174502 -1.05493164 18.23754883 C-1.05997101 16.78929927 -1.06680253 15.34105483 -1.07543945 13.89282227 C-1.08752247 11.81525412 -1.09323211 9.73775303 -1.09765625 7.66015625 C-1.10289307 6.40855713 -1.10812988 5.15695801 -1.11352539 3.86743164 C-1 1 -1 1 0 0 Z " fill="#B2855C" transform="translate(86,339)"/>
<path d="M0 0 C5.28 0 10.56 0 16 0 C16.33 0.99 16.66 1.98 17 3 C8.42 3 -0.16 3 -9 3 C-4.82091936 0.91045968 -4.19589427 0.83447381 0 2 C0 1.34 0 0.68 0 0 Z " fill="#B2845D" transform="translate(424,263)"/>
<path d="M0 0 C0.66 0.66 1.32 1.32 2 2 C1.360625 2.268125 0.72125 2.53625 0.0625 2.8125 C-2.33131686 3.88667752 -2.33131686 3.88667752 -3 7 C-3.66 7 -4.32 7 -5 7 C-5.66 8.98 -6.32 10.96 -7 13 C-7.66 13 -8.32 13 -9 13 C-9.495 13.66 -9.99 14.32 -10.5 15 C-10.995 15.66 -11.49 16.32 -12 17 C-12.66 17 -13.32 17 -14 17 C-14 17.66 -14 18.32 -14 19 C-15.32 19.33 -16.64 19.66 -18 20 C-12.80029729 12.48931831 -6.52800875 6.33787257 0 0 Z " fill="#AB8868" transform="translate(221,89)"/>
<path d="M0 0 C0.99 0 1.98 0 3 0 C3.66 1.65 4.32 3.3 5 5 C4.01 5 3.02 5 2 5 C2 10.94 2 16.88 2 23 C0.35 23 -1.3 23 -3 23 C-2.01 22.67 -1.02 22.34 0 22 C0 14.74 0 7.48 0 0 Z " fill="#A57449" transform="translate(382,352)"/>
<path d="M0 0 C0.33 0 0.66 0 1 0 C1 6.6 1 13.2 1 20 C-4.61 20 -10.22 20 -16 20 C-16 19.67 -16 19.34 -16 19 C-11.03926578 17.67713754 -6.08888488 17.91106803 -1 18 C-1.01160156 17.03578125 -1.02320313 16.0715625 -1.03515625 15.078125 C-1.04417969 13.81484375 -1.05320313 12.5515625 -1.0625 11.25 C-1.07410156 9.99703125 -1.08570313 8.7440625 -1.09765625 7.453125 C-1.02021027 4.71463499 -0.82780815 2.58119707 0 0 Z " fill="#AF845C" transform="translate(131,304)"/>
<path d="M0 0 C0.89138672 0.12568359 0.89138672 0.12568359 1.80078125 0.25390625 C8.37613667 1.06176485 14.43579834 0.74075192 21 0 C21.66 0 22.32 0 23 0 C23 0.66 23 1.32 23 2 C23.99 2.33 24.98 2.66 26 3 C17.42 3 8.84 3 0 3 C0 2.01 0 1.02 0 0 Z " fill="#98764E" transform="translate(212,372)"/>
<path d="M0 0 C0.66 0 1.32 0 2 0 C2 8.25 2 16.5 2 25 C0.68 24.67 -0.64 24.34 -2 24 C-1.34 23.34 -0.68 22.68 0 22 C-0.37046829 20.08436589 -0.37046829 20.08436589 -1 18 C-1.02172852 15.89355469 -1.02172852 15.89355469 -0.87890625 13.671875 C-0.83056641 12.87265625 -0.78222656 12.0734375 -0.73242188 11.25 C-0.64831055 10.0125 -0.64831055 10.0125 -0.5625 8.75 C-0.51029297 7.90953125 -0.45808594 7.0690625 -0.40429688 6.203125 C-0.27504311 4.1350648 -0.13825726 2.0674778 0 0 Z " fill="#9E7550" transform="translate(91,350)"/>
<path d="M0 0 C7.5625 6.1875 7.5625 6.1875 10 9 C10 9.99 10 10.98 10 12 C10.66 12 11.32 12 12 12 C11.67 12.99 11.34 13.98 11 15 C9.35 15 7.7 15 6 15 C6 12.66666667 6 10.33333333 6 8 C5.34 8 4.68 8 4 8 C4 7.01 4 6.02 4 5 C3.01 5 2.02 5 1 5 C0.67 3.35 0.34 1.7 0 0 Z " fill="#A67A58" transform="translate(435,251)"/>
<path d="M0 0 C1.60080151 4.00200378 0.29279692 7.04556236 -1 11 C0.65 11 2.3 11 4 11 C4 10.34 4 9.68 4 9 C5.65 9.33 7.3 9.66 9 10 C8.67 10.99 8.34 11.98 8 13 C6.54207116 13.05399736 5.08357288 13.09279177 3.625 13.125 C2.81289063 13.14820313 2.00078125 13.17140625 1.1640625 13.1953125 C-1 13 -1 13 -3 11 C-3.04166002 8.6670386 -3.04166002 6.3329614 -3 4 C-3.33 3.34 -3.66 2.68 -4 2 C-2.68 2 -1.36 2 0 2 C0 1.34 0 0.68 0 0 Z " fill="#A67C56" transform="translate(281,362)"/>
<path d="M0 0 C0.99 0.33 1.98 0.66 3 1 C2.38330256 12.33673594 1.72551003 23.66969448 1 35 C0.67 35 0.34 35 0 35 C0 23.45 0 11.9 0 0 Z " fill="#B0865F" transform="translate(100,338)"/>
<path d="M0 0 C0.33 0 0.66 0 1 0 C1 2.31 1 4.62 1 7 C2.09054688 6.85691406 2.09054688 6.85691406 3.203125 6.7109375 C10.83805174 5.86913789 17.50150455 6.39128023 25 8 C25 8.33 25 8.66 25 9 C21.02084841 9.02886984 17.04172347 9.04675406 13.0625 9.0625 C11.35803711 9.07506836 11.35803711 9.07506836 9.61914062 9.08789062 C8.53955078 9.09111328 7.45996094 9.09433594 6.34765625 9.09765625 C4.84730835 9.10551147 4.84730835 9.10551147 3.31665039 9.11352539 C1 9 1 9 0 8 C-0.14115161 5.32941149 -0.04247107 2.67567762 0 0 Z " fill="#927853" transform="translate(181,366)"/>
<path d="M0 0 C5.61 0 11.22 0 17 0 C17 1.98 17 3.96 17 6 C15.35 5.34 13.7 4.68 12 4 C12 3.67 12 3.34 12 3 C7.71 2.67 3.42 2.34 -1 2 C-0.67 1.34 -0.34 0.68 0 0 Z " fill="#B3865D" transform="translate(220,353)"/>
<path d="M0 0 C1.72985242 0.11512153 3.45888751 0.24255677 5.1875 0.375 C6.15042969 0.44460938 7.11335937 0.51421875 8.10546875 0.5859375 C11.28891226 1.04132888 14.64780002 1.64780002 17 4 C16.71269945 6.33944736 16.38063221 8.6739143 16 11 C15.34 11 14.68 11 14 11 C13.34 8.69 12.68 6.38 12 4 C6.06 3.01 6.06 3.01 0 2 C0 1.34 0 0.68 0 0 Z " fill="#A57D59" transform="translate(156,343)"/>
<path d="M0 0 C-0.93257834 4.10334471 -1.64129026 5.71602146 -5 8.375 C-8 10 -8 10 -10 10 C-10 10.66 -10 11.32 -10 12 C-10.66 12 -11.32 12 -12 12 C-12.66 13.32 -13.32 14.64 -14 16 C-14 14.68 -14 13.36 -14 12 C-13.01 11.67 -12.02 11.34 -11 11 C-9.79117904 8.99983534 -9.79117904 8.99983534 -9 7 C-8.34 7 -7.68 7 -7 7 C-6.731875 6.401875 -6.46375 5.80375 -6.1875 5.1875 C-3.37142857 0 -3.37142857 0 0 0 Z " fill="#A5805D" transform="translate(81,236)"/>
<path d="M0 0 C8.25 0 16.5 0 25 0 C25 0.33 25 0.66 25 1 C20.38 1 15.76 1 11 1 C11 1.66 11 2.32 11 3 C7.7 3 4.4 3 1 3 C0.67 2.01 0.34 1.02 0 0 Z " fill="#AC8870" transform="translate(253,230)"/>
<path d="M0 0 C0 4.05148766 -1.62723773 6.82906082 -4 10 C-7.0625 12.25 -7.0625 12.25 -10 14 C-10.5775 14.5775 -11.155 15.155 -11.75 15.75 C-12.1625 16.1625 -12.575 16.575 -13 17 C-13.66 17 -14.32 17 -15 17 C-13.71480435 14.13302508 -12.42870746 12.02392288 -10 10 C-9.34 10 -8.68 10 -8 10 C-7.34 8.68 -6.68 7.36 -6 6 C-5.34 6 -4.68 6 -4 6 C-3.566875 5.071875 -3.566875 5.071875 -3.125 4.125 C-2 2 -2 2 0 0 Z " fill="#A6815D" transform="translate(202,109)"/>
<path d="M0 0 C0.33 0 0.66 0 1 0 C1 4.29 1 8.58 1 13 C3.64 13 6.28 13 9 13 C9.33 13.66 9.66 14.32 10 15 C8.02 15 6.04 15 4 15 C3.67 15.66 3.34 16.32 3 17 C1 16 1 16 -1 14 C-1.39865603 9.13639641 -0.9586937 4.79346848 0 0 Z " fill="#A2774F" transform="translate(265,345)"/>
<path d="M0 0 C8.58 0 17.16 0 26 0 C26 0.33 26 0.66 26 1 C18.08 1.33 10.16 1.66 2 2 C1.67 3.98 1.34 5.96 1 8 C0.67 8 0.34 8 0 8 C0 5.36 0 2.72 0 0 Z " fill="#A47C58" transform="translate(252,262)"/>
<path d="M0 0 C2.65029065 5.30058131 3.09327794 8.20597363 2.6875 14.0625 C2.60886719 15.31160156 2.53023437 16.56070312 2.44921875 17.84765625 C2 21 2 21 0 23 C0 15.41 0 7.82 0 0 Z " fill="#A8815E" transform="translate(147,351)"/>
<path d="M0 0 C0.33 0 0.66 0 1 0 C1.29341888 5.67276511 1.00559652 8.99067246 -2 14 C-2.99 14 -3.98 14 -5 14 C-5 14.66 -5 15.32 -5 16 C-5.99 15.67 -6.98 15.34 -8 15 C-8 14.34 -8 13.68 -8 13 C-6.68 12.67 -5.36 12.34 -4 12 C-3.81824219 11.07767578 -3.81824219 11.07767578 -3.6328125 10.13671875 C-3.38144531 8.92435547 -3.38144531 8.92435547 -3.125 7.6875 C-2.96257812 6.88699219 -2.80015625 6.08648437 -2.6328125 5.26171875 C-2 3 -2 3 0 0 Z " fill="#A78764" transform="translate(178,348)"/>
<path d="M0 0 C0.33 0.99 0.66 1.98 1 3 C0.01 3.33 -0.98 3.66 -2 4 C-2 4.66 -2 5.32 -2 6 C-2.66 6 -3.32 6 -4 6 C-4 6.66 -4 7.32 -4 8 C-4.66 8 -5.32 8 -6 8 C-6.2475 8.598125 -6.495 9.19625 -6.75 9.8125 C-8.16370012 12.28647521 -9.65055383 13.43370255 -12 15 C-12.66 14.67 -13.32 14.34 -14 14 C-11.25083304 10.26113293 -8.24050815 7.36077509 -4.68359375 4.4296875 C-3.03232426 3.02744937 -1.51036481 1.55168178 0 0 Z " fill="#AD8A64" transform="translate(236,74)"/>
<path d="M0 0 C0.625 1.84765625 0.625 1.84765625 1 4 C-2.39351343 8.13584449 -6.62326663 10.99635945 -11 14 C-10.52590352 9.68269587 -7.96603297 7.66352539 -4.9375 4.75 C-4.01839844 3.85796875 -3.09929687 2.9659375 -2.15234375 2.046875 C-1.44207031 1.37140625 -0.73179688 0.6959375 0 0 Z " fill="#A57C55" transform="translate(120,250)"/>
<path d="M0 0 C0.89589844 0.00322266 1.79179687 0.00644531 2.71484375 0.00976562 C4.12056641 0.02233398 4.12056641 0.02233398 5.5546875 0.03515625 C6.49957031 0.03966797 7.44445312 0.04417969 8.41796875 0.04882812 C10.75527137 0.06063268 13.09244811 0.07709866 15.4296875 0.09765625 C12.44168593 3.08565782 9.01121037 2.6418929 4.9921875 2.84765625 C4.21552734 2.90308594 3.43886719 2.95851563 2.63867188 3.015625 C-3.19584263 3.34730283 -3.19584263 3.34730283 -6.5703125 1.09765625 C-4.16971433 -0.10264283 -2.67670601 -0.01694118 0 0 Z " fill="#B7865C" transform="translate(229.5703125,255.90234375)"/>
<path d="M0 0 C6.625 0.75 6.625 0.75 10 3 C6.71303767 3.79953138 5.28976808 4.09658936 2 3 C2.66 4.98 3.32 6.96 4 9 C2.68 8.67 1.36 8.34 0 8 C-0.98120464 4.94736336 -0.98120464 3.05263664 0 0 Z " fill="#AA815E" transform="translate(52,364)"/>
<path d="M0 0 C0.99 0 1.98 0 3 0 C3 3.96 3 7.92 3 12 C0.525 11.01 0.525 11.01 -2 10 C-2 9.01 -2 8.02 -2 7 C-1.34 7 -0.68 7 0 7 C0.33 5.35 0.66 3.7 1 2 C0.34 1.67 -0.32 1.34 -1 1 C-0.67 0.67 -0.34 0.34 0 0 Z " fill="#AA774B" transform="translate(90,338)"/>
<path d="M0 0 C-0.969375 0.45375 -1.93875 0.9075 -2.9375 1.375 C-6.07079582 2.65786221 -6.07079582 2.65786221 -7 5 C-7.66 5 -8.32 5 -9 5 C-9.0270043 6.45823212 -9.04639787 7.91660675 -9.0625 9.375 C-9.07410156 10.18710937 -9.08570313 10.99921875 -9.09765625 11.8359375 C-9.14466334 14.04937142 -9.14466334 14.04937142 -8 16 C-8.99 15.67 -9.98 15.34 -11 15 C-11 11.37 -11 7.74 -11 4 C-9.68 3.34 -8.36 2.68 -7 2 C-7 1.34 -7 0.68 -7 0 C-3.86650268 -1.04449911 -3.01031744 -0.93423645 0 0 Z " fill="#A68363" transform="translate(63,339)"/>
<path d="M0 0 C0.99 0.33 1.98 0.66 3 1 C2.50168276 4.68754757 1.89932357 6.60490662 -1 9 C-1.66 8.67 -2.32 8.34 -3 8 C-3.66 9.32 -4.32 10.64 -5 12 C-5.66 10.68 -6.32 9.36 -7 8 C-6.21625 7.79375 -5.4325 7.5875 -4.625 7.375 C-1.69083714 6.19323388 -1.69083714 6.19323388 -0.6875 2.875 C-0.460625 1.92625 -0.23375 0.9775 0 0 Z " fill="#AE8862" transform="translate(362,358)"/>
<path d="M0 0 C0.33 0.66 0.66 1.32 1 2 C-2.2933453 6.35883937 -4.77744875 8.95639299 -10 11 C-10.99 11 -11.98 11 -13 11 C-12.67 10.01 -12.34 9.02 -12 8 C-10.35 8 -8.7 8 -7 8 C-7 7.34 -7 6.68 -7 6 C-6.34 6 -5.68 6 -5 6 C-4.731875 5.38125 -4.46375 4.7625 -4.1875 4.125 C-3 2 -3 2 0 0 Z " fill="#A88661" transform="translate(369,364)"/>
<path d="M0 0 C0 4.95 0 9.9 0 15 C-2.10814567 10.78370866 -2.17700355 8.60209225 -2 4 C-3.32 3.67 -4.64 3.34 -6 3 C-3.375 0 -3.375 0 0 0 Z " fill="#AC8665" transform="translate(132,241)"/>
<path d="M0 0 C0.99 0.33 1.98 0.66 3 1 C3.0270043 2.45823212 3.04639787 3.91660675 3.0625 5.375 C3.07410156 6.18710937 3.08570313 6.99921875 3.09765625 7.8359375 C3 10 3 10 2 12 C1.34 12 0.68 12 0 12 C0 8.04 0 4.08 0 0 Z " fill="#AB8862" transform="translate(332,350)"/>
<path d="M0 0 C0.33 0 0.66 0 1 0 C1.31658501 4.03645882 1.4210379 6.32333195 -0.75 9.8125 C-2.80009589 11.80564878 -4.36155455 12.96346786 -7 14 C-5.80100302 10.9168649 -4.52299523 7.93720508 -3 5 C-2.34 5 -1.68 5 -1 5 C-0.67 3.35 -0.34 1.7 0 0 Z " fill="#AB8A62" transform="translate(131,338)"/>
<path d="M0 0 C0.99 0.33 1.98 0.66 3 1 C3 2.98 3 4.96 3 7 C1.35 7.33 -0.3 7.66 -2 8 C-2.33 6.35 -2.66 4.7 -3 3 C-2.01 3 -1.02 3 0 3 C0 2.01 0 1.02 0 0 Z " fill="#B76D47" transform="translate(260,367)"/>
<path d="M0 0 C3.3 0 6.6 0 10 0 C9.67 0.66 9.34 1.32 9 2 C8.01 2.33 7.02 2.66 6 3 C6.99 4.485 6.99 4.485 8 6 C5.50907189 7.24546405 4.58919267 6.7767578 2 6 C2 4.68 2 3.36 2 2 C1.34 1.34 0.68 0.68 0 0 Z " fill="#B3884E" transform="translate(62,355)"/>
<path d="M0 0 C0.66 0.33 1.32 0.66 2 1 C0.88321917 2.6721852 -0.24366352 4.33762803 -1.375 6 C-2.00148438 6.928125 -2.62796875 7.85625 -3.2734375 8.8125 C-3.84320313 9.534375 -4.41296875 10.25625 -5 11 C-5.66 11 -6.32 11 -7 11 C-6.52354792 6.71193127 -5.34097516 4.73352513 -2 2 C-1.34 2 -0.68 2 0 2 C0 1.34 0 0.68 0 0 Z " fill="#AE8963" transform="translate(341,339)"/>
<path d="M0 0 C0.33 0.99 0.66 1.98 1 3 C-2.66666667 6.66666667 -6.33333333 10.33333333 -10 14 C-10.66 13.67 -11.32 13.34 -12 13 C-11.46890625 12.48050781 -10.9378125 11.96101562 -10.390625 11.42578125 C-6.68949647 7.77192991 -3.12841559 4.17122079 0 0 Z " fill="#A6815F" transform="translate(124,189)"/>
<path d="M0 0 C0.99 0 1.98 0 3 0 C4.125 4.75 4.125 4.75 3 7 C2.01 7 1.02 7 0 7 C-0.66 5.35 -1.32 3.7 -2 2 C-1.34 1.34 -0.68 0.68 0 0 Z " fill="#B0855E" transform="translate(444,339)"/>
<path d="M0 0 C-0.66 0.66 -1.32 1.32 -2 2 C-2.99 2 -3.98 2 -5 2 C-5.433125 3.7015625 -5.433125 3.7015625 -5.875 5.4375 C-6.24625 6.613125 -6.6175 7.78875 -7 9 C-7.99 9.495 -7.99 9.495 -9 10 C-9.33 8.68 -9.66 7.36 -10 6 C-9.01 5.67 -8.02 5.34 -7 5 C-7.33 4.01 -7.66 3.02 -8 2 C-4.77208445 -0.1519437 -3.71599191 -0.20086443 0 0 Z " fill="#AA825D" transform="translate(307,345)"/>
<path d="M0 0 C0.8125 1.625 0.8125 1.625 1 4 C-3 9.66666667 -3 9.66666667 -7 11 C-6.25 8.0625 -6.25 8.0625 -5 5 C-2.875 4.125 -2.875 4.125 -1 4 C-0.67 2.68 -0.34 1.36 0 0 Z " fill="#AB8461" transform="translate(327,362)"/>
<path d="M0 0 C0.66 0 1.32 0 2 0 C1.67 1.98 1.34 3.96 1 6 C-0.98 6.66 -2.96 7.32 -5 8 C-3.63055898 5.05043472 -2.12169591 2.47531189 0 0 Z " fill="#AC875B" transform="translate(94,220)"/>
<path d="M0 0 C1.33332095 2.6666419 0.67102033 4.16680303 0 7 C-0.66 6.67 -1.32 6.34 -2 6 C-2.66 6.66 -3.32 7.32 -4 8 C-4.625 5.625 -4.625 5.625 -5 3 C-3 1 -3 1 0 0 Z " fill="#AB6A42" transform="translate(111,352)"/>
<path d="M0 0 C0.99 0.33 1.98 0.66 3 1 C3 3.64 3 6.28 3 9 C1.68 8.67 0.36 8.34 -1 8 C-0.67 5.36 -0.34 2.72 0 0 Z " fill="#B08A5E" transform="translate(327,352)"/>
<path d="M0 0 C5.61 0 11.22 0 17 0 C17 0.33 17 0.66 17 1 C11.72 1.66 6.44 2.32 1 3 C0.67 2.01 0.34 1.02 0 0 Z " fill="#AA8562" transform="translate(344,338)"/>
<path d="M0 0 C1.9375 0.8125 1.9375 0.8125 4 2 C4.33 2.99 4.66 3.98 5 5 C3.35 5.66 1.7 6.32 0 7 C-1.04449911 3.86650268 -0.93423645 3.01031744 0 0 Z " fill="#AE724B" transform="translate(306,119)"/>
<path d="M0 0 C0.66 0 1.32 0 2 0 C1.01 2.97 0.02 5.94 -1 9 C-2.65 9 -4.3 9 -6 9 C-5.67 8.34 -5.34 7.68 -5 7 C-4.34 7 -3.68 7 -3 7 C-2.690625 6.030625 -2.38125 5.06125 -2.0625 4.0625 C-1 1 -1 1 0 0 Z " fill="#AA8360" transform="translate(367,402)"/>
<path d="M0 0 C0.226875 0.598125 0.45375 1.19625 0.6875 1.8125 C2.33811133 4.56351888 4.1972081 5.52484637 7 7 C6.67 7.66 6.34 8.32 6 9 C2.5625 7.75 2.5625 7.75 -1 6 C-1.9375 3.8125 -1.9375 3.8125 -2 2 C-1.34 2 -0.68 2 0 2 C0 1.34 0 0.68 0 0 Z " fill="#A48766" transform="translate(421,366)"/>
<path d="M0 0 C0.33 0 0.66 0 1 0 C1 3.63 1 7.26 1 11 C-2 8 -2 8 -2.1875 4.8125 C-2.125625 3.884375 -2.06375 2.95625 -2 2 C-1.34 2 -0.68 2 0 2 C0 1.34 0 0.68 0 0 Z " fill="#B28962" transform="translate(371,351)"/>
<path d="M0 0 C4.13639336 1.59092052 7.23213248 4.60474918 10 8 C10 8.66 10 9.32 10 10 C9.34 10 8.68 10 8 10 C7.38125 9.195625 6.7625 8.39125 6.125 7.5625 C3.97459015 4.96935871 3.24605542 4.34779165 0 4 C0 2.68 0 1.36 0 0 Z " fill="#A2744F" transform="translate(385,201)"/>
<path d="M0 0 C1.45922693 0.11409593 2.91740598 0.24165544 4.375 0.375 C5.59316406 0.47941406 5.59316406 0.47941406 6.8359375 0.5859375 C9 1 9 1 11 3 C7.37 3 3.74 3 0 3 C0 2.01 0 1.02 0 0 Z " fill="#937458" transform="translate(212,372)"/>
<path d="M0 0 C1.65 0.33 3.3 0.66 5 1 C4.67 1.99 4.34 2.98 4 4 C1.03 4 -1.94 4 -5 4 C-5 3.67 -5 3.34 -5 3 C-3.35 2.67 -1.7 2.34 0 2 C0 1.34 0 0.68 0 0 Z " fill="#AC764E" transform="translate(285,371)"/>
<path d="M0 0 C-0.66 1.65 -1.32 3.3 -2 5 C-2.66 5 -3.32 5 -4 5 C-4 6.32 -4 7.64 -4 9 C-4.66 9 -5.32 9 -6 9 C-5.47731534 6.23723823 -4.89130413 3.6739124 -4 1 C-2 0 -2 0 0 0 Z " fill="#B78F58" transform="translate(404,349)"/>
<path d="M0 0 C1.32 0.66 2.64 1.32 4 2 C1.59078295 4.40921705 -0.94334509 5.53812156 -4 7 C-3.43628586 3.73045798 -2.50037734 2.17424117 0 0 Z " fill="#A97152" transform="translate(248,60)"/>
<path d="M0 0 C0.99 0.33 1.98 0.66 3 1 C3 1.66 3 2.32 3 3 C5.475 3.99 5.475 3.99 8 5 C7.01 5.66 6.02 6.32 5 7 C3.0625 6.3125 3.0625 6.3125 1 5 C0.25 2.375 0.25 2.375 0 0 Z " fill="#B89053" transform="translate(318,338)"/>
<path d="M0 0 C0.66 0.66 1.32 1.32 2 2 C1.67 2.66 1.34 3.32 1 4 C0.01 4 -0.98 4 -2 4 C-2 5.32 -2 6.64 -2 8 C-2.99 7.67 -3.98 7.34 -5 7 C-3.70700306 4.11562221 -2.34058637 2.12780579 0 0 Z " fill="#9B7F63" transform="translate(58,258)"/>
<path d="M0 0 C0.66 0.66 1.32 1.32 2 2 C1.34 2 0.68 2 0 2 C-0.061875 2.598125 -0.12375 3.19625 -0.1875 3.8125 C-1.3236757 6.87143458 -3.17330142 7.55041099 -6 9 C-5.34 7.35 -4.68 5.7 -4 4 C-3.34 4 -2.68 4 -2 4 C-1.34 2.68 -0.68 1.36 0 0 Z " fill="#A6825B" transform="translate(132,181)"/>
<path d="M0 0 C0 0.66 0 1.32 0 2 C-2.97 2 -5.94 2 -9 2 C-9 2.66 -9 3.32 -9 4 C-9.99 3.67 -10.98 3.34 -12 3 C-12 2.34 -12 1.68 -12 1 C-7.915021 0.45533613 -4.1274515 0 0 0 Z " fill="#A5805C" transform="translate(168,357)"/>
<path d="M0 0 C0.66 0.33 1.32 0.66 2 1 C0.625 3 0.625 3 -1 5 C-1.66 5 -2.32 5 -3 5 C-3.33 6.65 -3.66 8.3 -4 10 C-4.66 8.68 -5.32 7.36 -6 6 C-5.38125 5.7525 -4.7625 5.505 -4.125 5.25 C-1.64931313 3.79371361 -1.04874998 2.62187494 0 0 Z " fill="#AC845B" transform="translate(87,228)"/>
<path d="M0 0 C0.66 0 1.32 0 2 0 C2 1.32 2 2.64 2 4 C-0.31 4 -2.62 4 -5 4 C-5 3.34 -5 2.68 -5 2 C-4.01 1.67 -3.02 1.34 -2 1 C-1.34 1.33 -0.68 1.66 0 2 C0 1.34 0 0.68 0 0 Z " fill="#9A7451" transform="translate(137,371)"/>
<path d="M0 0 C0 0.33 0 0.66 0 1 C-4.29 0.67 -8.58 0.34 -13 0 C-13 -0.33 -13 -0.66 -13 -1 C-4.57142857 -2.42857143 -4.57142857 -2.42857143 0 0 Z " fill="#A97046" transform="translate(237,359)"/>
<path d="M0 0 C2.97 0.495 2.97 0.495 6 1 C4.68 1.33 3.36 1.66 2 2 C1.67 3.98 1.34 5.96 1 8 C0.67 8 0.34 8 0 8 C0 5.36 0 2.72 0 0 Z " fill="#AD8866" transform="translate(252,262)"/>
<path d="M0 0 C0.66 0.33 1.32 0.66 2 1 C1.67 1.66 1.34 2.32 1 3 C0.34 3 -0.32 3 -1 3 C-1 3.66 -1 4.32 -1 5 C-1.66 5 -2.32 5 -3 5 C-3.66 6.32 -4.32 7.64 -5 9 C-5 7.68 -5 6.36 -5 5 C-4.01 4.67 -3.02 4.34 -2 4 C-0.79117904 1.99983534 -0.79117904 1.99983534 0 0 Z " fill="#A17159" transform="translate(72,243)"/>
<path d="M0 0 C1.98 0.495 1.98 0.495 4 1 C3.34 2.32 2.68 3.64 2 5 C1.34 5 0.68 5 0 5 C-0.33 5.66 -0.66 6.32 -1 7 C-0.67 4.69 -0.34 2.38 0 0 Z " fill="#A67D5D" transform="translate(125,218)"/>
<path d="M0 0 C0.33 0 0.66 0 1 0 C1.04241723 2.33294775 1.04092937 4.66702567 1 7 C0 8 0 8 -2.5625 8.0625 C-3.366875 8.041875 -4.17125 8.02125 -5 8 C-4.01 7.34 -3.02 6.68 -2 6 C-0.78715124 2.94570927 -0.78715124 2.94570927 0 0 Z " fill="#8A734E" transform="translate(265,367)"/>
<path d="M0 0 C2.67927341 4.01891012 2.15601248 6.24161923 2 11 C1.34 11 0.68 11 0 11 C-0.84098656 6.98195309 -1.05404945 3.98196457 0 0 Z " fill="#B7885B" transform="translate(213,360)"/>
<path d="M0 0 C0.33 1.32 0.66 2.64 1 4 C-2.75 7 -2.75 7 -5 7 C-3.70700306 4.11562221 -2.34058637 2.12780579 0 0 Z " fill="#AA835E" transform="translate(120,250)"/>
<path d="M0 0 C1.98 1.65 3.96 3.3 6 5 C3 6 3 6 0.8125 5.0625 C0.214375 4.711875 -0.38375 4.36125 -1 4 C-0.67 2.68 -0.34 1.36 0 0 Z " fill="#A37058" transform="translate(370,241)"/>
<path d="M0 0 C0.99 0 1.98 0 3 0 C3.33 0.99 3.66 1.98 4 3 C4.99 3.66 5.98 4.32 7 5 C7 5.66 7 6.32 7 7 C4.13302508 5.71480435 2.02392288 4.42870746 0 2 C0 1.34 0 0.68 0 0 Z " fill="#9F8461" transform="translate(279,124)"/>
<path d="M0 0 C0.99 0 1.98 0 3 0 C3 0.66 3 1.32 3 2 C3.639375 2.28875 4.27875 2.5775 4.9375 2.875 C7 4 7 4 8 6 C7.01 6 6.02 6 5 6 C4.67 5.34 4.34 4.68 4 4 C1.98330173 2.86649466 1.98330173 2.86649466 0 2 C0 1.34 0 0.68 0 0 Z " fill="#A8815D" transform="translate(284,98)"/>
<path d="M0 0 C2.76223278 2.76223278 2.57856291 5.20706617 3 9 C2.34 9 1.68 9 1 9 C-0.4783226 6.04335481 -0.06032783 3.25770263 0 0 Z " fill="#A08064" transform="translate(340,355)"/>
<path d="M0 0 C2.31 0 4.62 0 7 0 C7 0.99 7 1.98 7 3 C4.69 2.67 2.38 2.34 0 2 C0 1.34 0 0.68 0 0 Z " fill="#A7794B" transform="translate(132,338)"/>
<path d="M0 0 C0.66 0 1.32 0 2 0 C1.67 1.65 1.34 3.3 1 5 C-0.32 4.67 -1.64 4.34 -3 4 C-1.625 2 -1.625 2 0 0 Z " fill="#AA8061" transform="translate(99,215)"/>
<path d="M0 0 C0.66 0.66 1.32 1.32 2 2 C0.71034824 3.37562854 -0.62689293 4.70766393 -2 6 C-2.66 6 -3.32 6 -4 6 C-2.25 1.125 -2.25 1.125 0 0 Z " fill="#AD845F" transform="translate(153,191)"/>
<path d="M0 0 C-0.3125 1.9375 -0.3125 1.9375 -1 4 C-1.99 4.33 -2.98 4.66 -4 5 C-5.66710346 6.49985609 -5.66710346 6.49985609 -7 8 C-4.18918919 0 -4.18918919 0 0 0 Z " fill="#A37B5E" transform="translate(148,166)"/>
</svg>
